<?xml version="1.0" standalone="no"?>
<!DOCTYPE svg PUBLIC "-//W3C//DTD SVG 20010904//EN"
 "http://www.w3.org/TR/2001/REC-SVG-20010904/DTD/svg10.dtd">
<svg version="1.0" xmlns="http://www.w3.org/2000/svg"
 width="2271.000000pt" height="1210.000000pt" viewBox="0 0 2271.000000 1210.000000"
 preserveAspectRatio="xMidYMid meet">

<g transform="translate(0.000000,1210.000000) scale(0.100000,-0.100000)"
fill="#000000" stroke="none">
<path d="M7433 10720 c-46 -10 -316 -93 -600 -184 -585 -186 -926 -293 -1585
-495 -302 -93 -472 -150 -499 -168 -22 -14 -51 -45 -64 -67 -13 -23 -55 -153
-95 -291 -277 -966 -639 -2145 -743 -2420 -37 -99 -38 -147 -7 -384 22 -166
22 -176 6 -205 -15 -26 -271 -261 -376 -345 -41 -32 -56 -17 -63 63 -8 85 -25
122 -101 225 -34 47 -71 106 -80 131 -10 25 -27 55 -39 68 -70 75 -79 82 -101
76 -17 -4 -30 3 -54 31 -18 19 -32 39 -32 44 0 11 -47 31 -74 31 -25 0 -56
-28 -56 -50 0 -8 -11 -30 -25 -50 -19 -27 -26 -54 -31 -113 -6 -63 -12 -84
-36 -117 -26 -34 -34 -39 -76 -42 l-47 -3 -1 -40 c0 -22 -8 -77 -18 -122 -9
-46 -14 -88 -11 -93 4 -6 3 -16 -3 -23 -5 -7 -14 -45 -21 -85 -6 -41 -18 -87
-26 -102 -8 -16 -14 -39 -13 -52 1 -25 -36 -124 -56 -148 -7 -8 -25 -40 -39
-70 -14 -30 -32 -66 -40 -80 -37 -63 -147 -373 -194 -545 -51 -187 -123 -513
-143 -649 -6 -43 -18 -97 -26 -120 -9 -22 -20 -66 -25 -96 -14 -74 -19 -90
-30 -90 -5 0 -9 9 -9 20 0 11 -5 20 -11 20 -6 0 -10 -24 -8 -63 1 -34 -10
-141 -24 -237 -14 -96 -29 -204 -33 -239 -5 -50 -9 -61 -18 -49 -6 8 -17 13
-23 11 -20 -7 -15 -58 8 -87 22 -28 20 -56 -6 -56 -34 0 -13 -63 29 -87 8 -5
20 -37 28 -73 l15 -66 -42 -146 c-23 -81 -56 -182 -73 -225 -16 -43 -49 -139
-72 -213 -23 -74 -51 -150 -61 -168 -15 -26 -18 -45 -13 -85 7 -59 -23 -233
-62 -365 -18 -59 -26 -114 -29 -195 -5 -119 -10 -155 -49 -337 -27 -125 -25
-191 8 -315 9 -32 16 -69 16 -81 0 -28 27 -93 49 -119 10 -11 23 -40 30 -65
17 -59 73 -115 131 -129 25 -6 66 -22 92 -36 50 -27 48 -27 193 -22 60 2 110
8 125 17 14 7 26 13 28 12 13 -10 57 3 74 20 13 13 39 28 59 34 19 6 88 45
152 88 65 42 170 107 235 144 64 37 190 123 280 190 223 167 416 303 485 342
64 36 92 69 84 100 -5 21 25 46 42 36 4 -3 13 6 20 20 8 19 17 25 30 21 12 -3
27 4 39 18 11 13 26 27 34 31 7 5 26 26 41 47 30 39 47 41 47 3 0 -12 11 -33
25 -46 32 -30 32 -54 1 -68 -19 -8 -27 -23 -36 -66 -17 -83 -12 -99 33 -109
34 -8 38 -12 33 -33 -5 -19 -1 -27 20 -36 22 -10 28 -10 39 5 9 13 22 15 56
11 24 -3 67 -8 94 -11 28 -3 55 -8 60 -13 6 -4 24 -10 40 -14 52 -13 125 -48
125 -60 0 -25 71 -80 122 -96 74 -22 215 -3 251 33 32 32 34 1 3 -32 -32 -34
-33 -41 -1 -41 30 0 95 31 115 55 11 14 24 15 72 10 45 -5 64 -3 83 9 31 20
49 20 66 0 27 -33 55 -34 151 -10 63 17 125 42 193 80 55 31 123 65 151 77 44
17 53 25 58 52 14 85 20 99 47 119 16 12 29 28 29 35 0 8 13 19 29 24 16 6 41
28 55 49 17 26 31 37 41 34 10 -4 15 0 15 10 0 9 8 16 19 16 36 0 32 -18 -11
-54 -36 -30 -40 -36 -22 -36 20 0 42 18 97 78 17 19 17 20 -13 32 -16 7 -27
17 -24 22 4 6 10 5 15 -3 6 -11 13 -9 31 7 13 12 32 26 43 32 19 11 19 11 -2
12 -13 0 -23 5 -23 10 0 6 4 10 9 10 4 0 20 11 35 25 15 14 37 25 49 25 20 1
21 2 5 14 -16 12 -15 15 10 38 15 13 48 37 75 52 26 15 47 31 47 36 0 5 26 23
58 39 31 16 82 53 112 81 30 28 67 63 82 76 20 19 26 32 22 48 -3 14 1 27 11
36 29 24 48 77 41 116 -5 22 -3 41 5 50 6 8 13 30 14 49 2 31 23 69 91 162 10
15 16 44 17 83 0 49 4 64 20 75 15 10 18 20 12 45 -6 29 -9 31 -38 25 l-32 -6
30 28 c26 24 37 63 18 63 -12 0 -311 -155 -350 -181 -23 -16 -55 -29 -71 -29
-16 0 -40 -8 -53 -19 -17 -13 -33 -17 -64 -13 -39 4 -45 1 -86 -40 -24 -25
-72 -59 -107 -77 -36 -18 -67 -42 -73 -55 -12 -25 -47 -46 -79 -46 -11 0 -43
-15 -72 -34 -29 -18 -80 -47 -113 -64 -33 -17 -98 -53 -145 -81 -46 -29 -91
-50 -100 -49 -9 2 -36 -14 -61 -35 -70 -57 -98 -49 -31 9 48 43 29 43 -43 -1
-105 -63 -115 -60 -124 42 -4 37 -10 74 -14 81 -18 28 -24 -3 -20 -101 4 -86
2 -105 -11 -116 -13 -11 -16 -11 -16 -1 0 7 -8 19 -17 26 -34 24 -27 297 10
383 15 36 47 167 54 219 3 24 21 75 40 114 38 79 66 175 62 216 -2 15 2 36 8
47 15 30 36 142 29 154 -9 14 7 14 21 0 24 -24 76 27 76 75 0 15 10 29 28 40
36 21 67 47 145 122 35 34 77 67 94 74 16 7 30 17 30 22 0 5 -6 6 -12 2 -8 -5
-8 0 2 15 16 24 101 60 163 68 27 4 37 9 33 19 -3 7 -1 16 5 20 6 4 6 11 -2
20 -9 12 -6 16 20 25 17 6 31 16 31 22 0 7 5 29 11 50 9 33 14 38 31 33 12 -3
29 -1 38 4 9 5 22 5 30 0 15 -9 71 10 100 33 8 7 42 21 75 31 33 10 67 24 75
31 8 7 32 18 53 25 46 14 48 24 5 18 -23 -4 -36 0 -44 11 -10 13 -6 18 25 29
20 8 52 16 71 19 19 2 44 8 55 13 11 5 29 10 39 12 11 2 21 9 24 16 5 15 -77
16 -131 1 -45 -12 -73 -6 -37 9 14 5 39 16 55 23 l30 13 -33 4 c-18 2 -36 10
-39 18 -3 8 -9 14 -13 14 -9 0 -55 -72 -52 -82 2 -8 -24 -23 -65 -38 l-28 -10
28 23 c27 23 36 47 17 47 -25 0 -6 18 25 24 19 4 37 11 40 16 8 13 -9 12 -70
-4 -30 -8 -61 -10 -78 -5 -30 9 -85 -9 -107 -35 -16 -21 -66 -21 -74 0 -3 8
-14 14 -24 12 -9 -1 -31 7 -49 20 l-31 22 -194 -35 c-106 -19 -201 -37 -210
-39 -13 -3 -16 3 -16 26 1 26 37 58 337 302 473 383 648 522 866 684 105 78
236 179 293 224 167 134 191 150 236 154 22 3 53 13 67 24 15 11 39 22 53 26
43 11 29 21 -19 14 -25 -4 -45 -3 -45 2 0 4 16 8 35 8 29 0 39 6 61 39 22 33
29 38 47 31 18 -6 22 -15 20 -44 -3 -42 9 -45 42 -12 19 20 23 31 18 59 -3 20
-1 49 5 65 8 24 7 31 -9 40 -11 7 -19 23 -19 37 0 27 30 45 76 45 22 0 23 3
14 20 -6 11 -22 23 -35 26 -15 4 -25 13 -25 24 0 10 -10 24 -22 32 l-22 15 32
40 c41 52 40 63 -2 63 -18 0 -50 7 -70 15 -20 8 -48 15 -64 14 -15 0 -61 4
-102 10 -41 6 -82 11 -91 11 -13 0 5 55 88 263 256 646 439 1135 614 1650 60
175 114 327 119 337 15 29 50 43 200 85 74 20 191 55 260 77 279 88 400 103
730 88 124 -6 353 -14 510 -19 260 -7 289 -9 325 -28 58 -30 66 -39 342 -373
498 -603 628 -755 673 -785 30 -20 177 -74 435 -160 l390 -130 125 -1 c134 -1
143 -3 283 -69 46 -21 132 -48 205 -65 157 -35 251 -68 366 -128 170 -89 546
-393 704 -570 90 -101 132 -155 132 -169 0 -6 -27 -17 -60 -25 -33 -8 -60 -11
-60 -6 0 4 8 8 18 8 19 0 63 39 46 41 -55 6 -196 -32 -299 -81 -85 -40 -135
-53 -200 -51 -41 1 -57 -10 -117 -81 -13 -15 -56 -40 -96 -57 -40 -17 -100
-46 -133 -66 -33 -19 -68 -35 -78 -35 -10 0 -49 -11 -86 -25 -77 -29 -121 -30
-67 -1 18 9 31 23 29 29 -9 24 -75 5 -217 -62 -150 -72 -240 -104 -265 -95
-16 6 -98 -22 -190 -66 -273 -129 -324 -145 -295 -90 6 11 9 34 5 50 -3 16 -2
31 4 35 18 10 12 25 -9 25 -10 0 -25 -10 -31 -22 -6 -13 -13 -24 -14 -26 -1
-1 -15 3 -32 8 -26 10 -31 17 -37 56 -3 25 -2 53 3 62 9 19 4 42 -10 42 -5 0
-15 -11 -21 -25 -6 -14 -14 -25 -18 -25 -4 0 -19 18 -34 40 -22 34 -24 41 -11
46 27 11 16 21 -32 33 -30 8 -63 27 -91 52 -31 29 -48 38 -60 33 -9 -4 -73
-11 -142 -15 -69 -4 -161 -16 -205 -27 -44 -11 -120 -28 -170 -37 -115 -21
-302 -68 -380 -95 -130 -46 -369 -85 -580 -95 -75 -4 -143 -13 -161 -21 -34
-15 -59 -16 -149 -10 -64 5 -190 -24 -366 -85 -48 -16 -106 -29 -131 -29 -55
0 -141 -25 -159 -46 -7 -9 -43 -31 -80 -49 -60 -31 -79 -49 -79 -76 0 -16 26
-10 56 14 l29 22 -20 -27 c-11 -15 -30 -28 -42 -28 -32 0 -38 -18 -8 -26 15
-4 30 -17 35 -30 7 -18 17 -24 41 -24 18 0 29 -3 25 -7 -4 -4 -21 -7 -39 -8
-27 0 -32 -3 -29 -22 2 -13 -1 -23 -7 -23 -16 0 -58 -43 -65 -67 -5 -16 -15
-23 -31 -23 -13 0 -35 -4 -49 -10 -25 -9 -26 -8 -26 31 0 32 -3 40 -15 35 -40
-15 -59 59 -28 112 21 37 12 59 -32 78 -29 12 -35 20 -35 44 0 18 -8 34 -22
44 l-21 15 26 10 c30 12 32 23 16 70 -9 25 -16 31 -40 31 -24 0 -29 -4 -29
-25 0 -24 -2 -25 -35 -19 -40 7 -65 -7 -65 -37 0 -11 -5 -19 -10 -19 -20 0
-59 55 -60 82 0 29 14 45 25 28 3 -5 11 -10 17 -10 14 0 1 52 -17 66 -8 6 -19
33 -25 60 -10 42 -9 50 6 61 29 21 42 15 66 -29 17 -34 23 -39 26 -24 2 11 -3
25 -12 31 -9 7 -16 16 -16 21 0 5 -10 27 -21 49 -16 30 -33 46 -65 59 -24 10
-54 31 -66 47 -13 16 -34 42 -47 59 -15 20 -31 30 -44 28 -31 -5 -30 -21 4
-64 27 -35 29 -39 12 -43 -10 -2 -29 -12 -42 -22 -13 -10 -28 -16 -33 -13 -13
8 -77 -24 -116 -57 -18 -16 -39 -29 -47 -29 -17 0 -20 -35 -5 -45 17 -10 11
-25 -9 -25 -41 0 -51 -11 -51 -56 0 -24 -9 -65 -19 -92 -12 -30 -16 -54 -11
-63 11 -20 -4 -87 -23 -102 -21 -17 -27 -54 -15 -87 16 -48 -15 -123 -77 -186
-58 -59 -71 -87 -49 -108 8 -8 14 -26 14 -40 0 -14 5 -26 11 -26 6 0 10 -10 9
-22 -3 -36 -1 -41 14 -29 25 21 27 -16 4 -61 -12 -23 -21 -58 -21 -77 1 -20
-4 -43 -12 -51 -7 -8 -18 -33 -25 -55 -7 -22 -19 -53 -27 -69 -21 -40 -55
-165 -48 -176 6 -10 -29 -145 -54 -205 -9 -21 -16 -42 -16 -45 -1 -3 -11 -31
-23 -63 -12 -32 -22 -76 -22 -98 0 -22 -5 -49 -11 -61 -15 -28 -61 -220 -55
-233 6 -17 -27 -154 -46 -190 -10 -18 -14 -42 -11 -59 6 -28 5 -29 -29 -22
-43 8 -73 -20 -93 -88 -13 -41 -12 -48 0 -53 8 -3 15 -9 15 -14 0 -4 -6 -6
-14 -3 -26 10 -48 -100 -25 -123 12 -12 -3 -75 -24 -101 -5 -7 -7 -16 -3 -19
12 -13 40 13 47 43 3 16 16 53 28 82 11 29 21 62 21 73 0 26 31 97 36 83 3 -6
-11 -73 -31 -148 -20 -75 -33 -145 -30 -156 3 -11 3 -25 -1 -32 -4 -6 -8 -28
-8 -47 -1 -30 -5 -37 -25 -39 -13 -2 -38 -18 -55 -35 -59 -59 -71 -217 -16
-187 11 6 21 18 22 28 1 9 2 24 3 32 2 25 15 40 36 40 18 0 19 -6 15 -92 -2
-51 -6 -100 -9 -108 -3 -8 -11 -40 -18 -70 -6 -30 -18 -67 -26 -82 -17 -34
-38 -38 -29 -5 4 12 10 48 13 80 5 53 4 57 -15 57 -30 0 -56 -43 -47 -78 3
-15 6 -38 6 -52 0 -38 19 -90 33 -90 19 0 35 -42 25 -66 -12 -33 -9 -112 5
-123 8 -7 10 -33 7 -83 -10 -163 -6 -373 8 -416 19 -58 31 -36 31 59 0 69 10
99 31 99 8 0 16 -76 23 -200 2 -41 6 -82 10 -90 3 -8 -3 -33 -14 -55 -24 -47
-26 -78 -5 -95 36 -30 7 -54 -31 -25 -29 22 -36 18 -29 -18 10 -46 73 -167 87
-167 6 0 20 -7 30 -17 26 -23 28 -15 13 43 -7 29 -15 62 -16 75 -4 28 14 39
19 12 2 -10 10 -42 18 -70 15 -54 31 -65 54 -38 7 8 22 15 35 15 12 0 30 9 40
20 22 24 38 25 70 4 21 -14 24 -14 33 3 11 19 40 24 125 24 l47 -1 0 48 c0 41
5 53 30 77 18 17 26 33 21 38 -13 13 5 69 29 87 22 17 70 107 70 131 0 9 7 22
15 29 11 9 14 22 9 46 -5 29 -3 35 20 45 24 11 29 9 56 -16 l30 -29 -6 32 c-8
40 2 82 20 82 7 0 24 -24 36 -53 27 -63 24 -59 44 -51 24 9 20 29 -19 85 -39
56 -39 59 -25 108 6 22 6 40 -1 52 -7 14 -5 26 7 44 9 14 13 25 9 25 -3 0 3
15 14 34 12 18 21 47 21 63 0 16 4 33 9 39 11 11 81 219 81 240 0 8 5 14 11
14 14 0 40 66 33 85 -3 8 1 26 10 40 30 46 41 155 15 155 -5 0 -19 -19 -31
-43 -19 -36 -23 -39 -26 -20 -6 38 28 194 54 249 16 33 24 69 24 102 0 37 5
54 18 64 13 10 18 31 20 82 2 38 10 82 18 97 8 16 14 37 14 47 0 10 9 45 20
76 16 47 17 62 8 80 -16 28 -19 134 -4 144 20 13 38 82 31 119 -6 32 -4 34 14
28 26 -8 29 19 5 33 -14 8 -14 14 7 53 26 49 35 124 19 145 -8 9 -8 18 -1 33
6 11 11 28 11 38 0 10 7 31 15 47 8 15 15 45 15 65 1 38 27 107 31 81 4 -24
10 -122 9 -165 0 -36 1 -38 17 -23 9 9 17 32 18 50 2 18 8 46 14 61 15 38 14
50 -6 86 -18 31 -18 32 16 95 23 43 31 70 27 84 -4 12 0 42 9 67 9 29 15 78
14 128 -1 73 6 264 13 357 1 19 -1 52 -5 73 -8 37 -7 38 13 27 14 -8 19 -17
15 -33 -6 -26 -2 -31 47 -73 48 -42 144 -73 260 -85 63 -6 101 -15 118 -28 35
-25 52 -28 299 -51 l214 -21 69 22 c38 11 81 19 95 16 15 -3 39 0 55 5 18 6
33 7 39 1 5 -5 47 -5 96 -1 49 3 136 9 194 13 59 3 167 14 240 25 145 21 154
19 143 -32 -7 -34 10 -37 27 -6 7 13 14 18 16 12 6 -19 -54 -141 -96 -193 -21
-28 -45 -66 -51 -86 -12 -35 -6 -60 11 -50 34 21 -20 -113 -60 -149 -12 -11
-21 -28 -21 -40 0 -11 -12 -37 -26 -58 -25 -35 -29 -37 -44 -23 -21 19 -26 19
-60 -5 -16 -11 -35 -17 -43 -14 -10 3 -20 -3 -27 -15 -12 -24 -1 -28 30 -9 25
16 30 10 33 -38 2 -38 1 -39 -35 -42 -25 -2 -38 -8 -38 -18 0 -10 -12 -14 -38
-14 -21 0 -46 -6 -57 -14 -11 -7 -36 -17 -55 -21 -19 -4 -47 -14 -63 -21 -25
-13 -27 -18 -21 -53 7 -43 12 -40 -91 -57 -54 -9 -71 -19 -132 -77 -58 -55
-66 -72 -28 -63 30 8 42 -12 25 -43 -9 -19 -8 -21 13 -21 13 0 46 11 72 25 94
47 64 8 -70 -92 -76 -57 -84 -70 -51 -84 14 -7 22 -17 19 -25 -4 -11 -11 -10
-33 6 -35 25 -41 25 -93 -1 -51 -26 -247 -217 -247 -241 0 -10 -9 -23 -20 -30
-11 -7 -20 -20 -20 -30 0 -9 -18 -31 -41 -49 -40 -31 -62 -66 -52 -82 3 -4 11
-3 19 4 11 9 14 8 14 -5 0 -8 -13 -22 -30 -31 -31 -16 -37 -29 -20 -40 6 -4 8
-15 5 -25 -7 -21 15 -32 36 -19 8 5 20 9 28 9 39 0 -45 -143 -94 -161 -17 -6
-41 -25 -53 -43 l-22 -31 0 27 c0 36 -18 45 -37 18 -8 -12 -34 -35 -56 -51
-23 -17 -53 -51 -67 -76 -21 -38 -34 -49 -77 -65 -29 -11 -53 -24 -53 -29 0
-6 -20 -30 -45 -56 -44 -44 -57 -73 -33 -73 6 0 8 -3 5 -6 -4 -4 -14 -1 -22 6
-13 11 -19 11 -32 -3 -20 -20 -10 -63 18 -72 13 -4 20 -14 18 -28 -3 -38 1
-47 18 -47 28 0 -25 -49 -84 -77 -28 -14 -85 -57 -127 -98 -58 -57 -80 -86
-97 -129 -11 -31 -27 -59 -34 -64 -22 -12 -117 -223 -121 -270 -4 -36 -2 -42
15 -42 11 0 23 5 26 10 4 6 10 8 14 5 8 -5 -3 -97 -14 -115 -7 -12 13 -52 31
-63 8 -4 14 -15 14 -24 0 -10 5 -13 18 -8 31 12 36 10 50 -18 12 -25 12 -31
-3 -47 -10 -11 -15 -26 -12 -34 9 -23 114 -49 197 -48 41 0 100 0 130 1 30 0
60 -5 67 -11 10 -8 13 -4 13 16 0 31 11 33 35 6 23 -25 205 -114 275 -134 74
-21 366 -66 427 -66 61 0 247 33 334 59 35 10 78 22 94 25 77 17 321 96 396
128 30 13 74 30 98 38 28 9 54 27 74 52 32 40 113 92 128 82 5 -3 14 6 20 20
6 13 25 30 40 37 17 7 29 19 29 30 0 11 5 19 11 19 7 0 9 11 5 31 -8 42 24 69
122 103 42 15 94 35 115 46 20 10 37 14 37 9 0 -6 15 -9 33 -7 24 2 31 7 29
21 -2 13 4 17 26 17 61 0 93 12 108 41 13 26 18 28 57 23 30 -4 48 -1 62 10
19 15 19 16 2 30 -18 14 -18 15 2 25 11 6 29 11 41 11 12 0 25 10 32 26 12 25
12 25 20 4 5 -14 14 -20 23 -16 11 4 15 -1 15 -17 1 -20 1 -21 11 -4 6 11 9
32 7 48 -3 17 1 30 9 33 17 7 16 -6 -7 -138 -15 -87 -23 -113 -40 -126 -17
-13 -20 -22 -14 -46 4 -16 15 -39 25 -52 12 -16 17 -39 17 -71 -1 -26 2 -53 7
-60 15 -25 25 11 26 89 1 108 10 201 18 195 5 -2 9 -50 10 -106 2 -104 17
-159 46 -159 7 0 16 10 18 23 3 12 3 -13 0 -55 -5 -67 -2 -82 16 -113 11 -20
21 -43 21 -51 0 -8 4 -14 8 -14 8 0 62 -111 62 -128 0 -17 61 -63 91 -69 34
-7 53 -27 68 -74 13 -40 43 -59 93 -59 17 0 39 -7 48 -15 14 -13 25 -13 91 0
72 14 75 13 138 -11 53 -22 71 -24 110 -17 26 5 46 14 46 21 0 19 26 32 63 32
60 0 157 54 272 152 60 51 152 128 204 172 52 43 100 92 107 107 6 16 17 29
24 29 8 0 34 26 59 57 34 43 45 64 41 81 -5 19 -1 22 21 22 24 0 26 -3 20 -27
-17 -78 -18 -93 -6 -93 14 0 82 56 141 116 26 26 38 33 42 23 4 -10 24 5 65
48 56 57 60 65 64 115 2 29 0 54 -4 56 -16 7 -7 23 18 32 21 8 32 6 57 -12 18
-12 34 -26 35 -30 7 -15 31 -8 62 19 42 35 170 181 170 193 0 17 -40 11 -70
-12 -51 -38 -43 -13 14 45 39 38 56 64 56 81 0 23 -2 25 -26 15 -15 -5 -28 -8
-30 -6 -8 8 78 102 126 136 30 22 63 47 73 56 9 8 25 15 35 15 43 0 109 66 87
88 -13 13 -66 10 -72 -4 -3 -8 -9 -14 -14 -14 -4 0 -1 16 7 35 7 19 14 44 14
56 0 19 -2 20 -16 8 -44 -36 -72 -9 -39 38 8 12 12 28 9 36 -3 9 16 35 50 68
31 30 56 57 56 61 0 4 -17 4 -37 1 l-38 -6 28 30 c22 23 26 35 21 60 -5 27 0
35 58 87 34 32 75 63 91 68 29 11 35 23 15 31 -10 4 -10 7 0 18 40 43 -37 39
-108 -6 -30 -19 -59 -35 -65 -35 -7 0 -20 -9 -29 -19 -10 -11 -31 -25 -48 -32
-25 -10 -31 -10 -38 2 -11 17 -21 7 -35 -34 -6 -19 -18 -33 -30 -36 -11 -2
-46 -26 -77 -53 -32 -28 -58 -45 -58 -38 0 11 -11 9 -60 -8 -8 -3 -4 4 10 16
31 26 12 29 -42 5 -41 -18 -50 -42 -18 -50 14 -4 20 -14 20 -32 0 -21 -18 -45
-77 -102 -75 -72 -85 -87 -53 -81 30 6 -189 -198 -232 -217 -24 -10 -52 -28
-62 -40 -19 -21 -43 -30 -31 -11 15 24 -24 7 -53 -23 -33 -34 -38 -52 -22 -77
7 -12 13 -9 35 14 14 16 29 25 33 21 12 -12 -48 -55 -76 -55 -17 0 -40 -13
-66 -37 -36 -36 -42 -30 -8 10 28 32 -5 17 -48 -23 -34 -31 -40 -42 -31 -53 9
-11 7 -17 -6 -28 -15 -12 -16 -12 -10 4 3 9 4 17 1 17 -8 0 -59 -42 -122 -101
-29 -27 -57 -49 -63 -49 -6 0 -29 -16 -52 -35 -43 -37 -71 -44 -81 -20 -6 18
-37 20 -54 3 -6 -6 -13 -10 -15 -7 -3 3 18 227 23 249 1 3 5 -5 10 -18 20 -47
28 -17 32 120 3 79 13 193 22 253 53 348 148 823 181 902 9 21 30 51 48 68 31
29 31 30 10 33 -25 4 -31 26 -10 39 8 4 13 21 13 38 -1 22 4 30 19 33 11 3 43
28 72 58 29 29 67 61 85 70 18 9 45 31 61 50 30 36 113 70 147 59 15 -5 23 0
31 18 11 23 46 47 71 47 6 0 44 29 85 65 41 36 78 65 82 65 5 0 11 14 15 32 8
39 42 78 70 78 11 0 30 12 42 28 12 15 26 23 30 19 5 -4 4 -11 -1 -15 -13 -9
-55 -69 -55 -78 0 -3 11 -3 24 0 l24 6 -18 -36 c-10 -19 -24 -42 -31 -50 -19
-23 -5 -27 36 -10 24 11 35 21 32 30 -7 17 38 61 53 51 6 -4 16 -3 23 2 17 13
50 10 54 -4 3 -8 -4 -13 -16 -13 -12 0 -21 -4 -21 -9 0 -4 19 -5 43 0 23 4 48
8 55 9 6 0 12 7 12 15 0 9 -7 13 -17 10 -10 -3 1 4 25 15 41 20 61 44 48 57
-3 4 -16 2 -29 -4 -12 -6 -35 -17 -52 -24 -16 -7 -33 -15 -37 -17 -5 -2 -8 3
-8 11 0 8 14 20 31 26 19 7 29 16 27 27 -2 10 7 20 21 25 19 7 22 6 18 -6 -4
-8 -2 -17 3 -20 12 -8 40 5 40 19 0 7 6 18 12 24 7 7 13 20 13 30 0 22 72 61
110 60 16 0 46 2 65 6 35 8 34 7 -10 -16 -62 -32 -63 -47 -2 -43 32 3 62 13
87 30 21 14 49 28 62 31 51 13 12 49 -48 43 -45 -4 -59 1 -59 20 0 11 -6 21
-12 24 -7 2 21 6 61 10 50 4 80 2 88 -5 11 -9 15 -6 20 11 4 15 12 21 27 19
13 -2 21 3 21 12 1 28 15 40 33 29 27 -16 96 12 100 41 5 29 -12 47 -30 32
-10 -8 -35 -8 -87 -1 -50 7 -82 7 -102 0 -19 -6 -39 -7 -53 -1 -13 5 -26 6
-29 4 -5 -5 -83 -11 -237 -18 -30 -1 -68 -8 -84 -14 -16 -7 -32 -10 -35 -6 -3
4 0 9 7 11 14 5 16 29 3 37 -13 9 -107 -22 -122 -40 -10 -13 -10 -17 2 -25 12
-7 11 -9 -3 -9 -9 0 -25 -3 -35 -6 -17 -5 -17 -5 0 9 9 8 17 20 17 27 0 17
-89 5 -195 -25 -96 -28 -332 -68 -372 -63 -44 5 -42 34 4 48 21 7 45 18 53 25
8 7 24 16 35 19 27 9 81 54 73 61 -3 3 -34 1 -69 -5 -35 -5 -78 -10 -96 -10
l-31 0 13 57 c18 74 44 154 90 273 21 52 46 118 56 145 23 60 59 257 59 325 0
55 7 80 23 80 7 0 46 17 87 37 73 36 87 41 140 47 14 2 41 13 60 24 19 12 41
22 48 22 6 0 12 7 12 15 0 19 22 30 94 46 39 9 60 18 63 30 10 37 115 54 138
22 10 -13 19 -15 52 -6 l40 10 575 -895 c575 -895 575 -895 560 -924 -17 -35
-8 -49 14 -22 15 18 15 17 10 -16 -4 -25 -19 -47 -50 -75 -39 -35 -116 -155
-116 -180 0 -5 14 4 31 21 31 29 31 29 24 4 -11 -36 -43 -98 -55 -105 -5 -3
-10 3 -10 14 0 11 5 23 10 26 14 9 12 28 -2 22 -7 -2 -12 -10 -10 -16 1 -6 -2
-11 -7 -11 -7 0 -41 -69 -41 -83 0 -2 16 -3 35 -3 25 1 35 6 35 17 0 18 58 99
71 99 5 0 0 -19 -12 -43 -12 -23 -24 -55 -26 -71 -1 -16 -22 -63 -45 -105 -23
-42 -52 -97 -65 -124 -13 -26 -30 -47 -39 -47 -8 0 -23 -6 -34 -12 -17 -11
-22 -10 -29 0 -9 14 -24 -14 -62 -113 -25 -67 -45 -106 -109 -215 -24 -41 -51
-100 -61 -132 -19 -59 -72 -172 -94 -198 -7 -8 -18 -31 -24 -51 -14 -45 -57
-87 -107 -104 -33 -11 -39 -11 -42 1 -4 17 0 17 -53 -1 -24 -9 -60 -29 -81
-45 -20 -16 -67 -41 -104 -55 -37 -14 -74 -30 -81 -37 -18 -15 -29 -2 -13 17
16 20 12 19 -39 -6 -24 -11 -72 -45 -106 -74 -34 -29 -68 -54 -75 -57 -8 -2
-10 -9 -6 -16 4 -7 16 -10 27 -7 31 10 23 -18 -11 -38 -16 -10 -60 -46 -98
-80 -38 -34 -86 -75 -106 -90 -20 -15 -36 -35 -36 -43 0 -19 51 -84 66 -84 6
0 31 -14 56 -30 26 -17 59 -31 75 -30 46 0 174 9 226 16 43 5 48 4 45 -12 -3
-17 -21 -25 -80 -38 -20 -5 -26 -11 -21 -22 3 -9 13 -14 24 -11 11 3 21 1 24
-4 6 -9 -95 -201 -140 -267 -14 -20 -25 -41 -25 -47 0 -6 -11 -27 -25 -47 -27
-39 -24 -68 5 -68 33 0 70 -56 70 -105 0 -24 5 -47 10 -50 6 -3 10 -17 10 -31
0 -20 -5 -24 -30 -24 -23 0 -30 -5 -30 -19 0 -10 -2 -31 -5 -47 -5 -25 -1 -32
30 -52 39 -25 60 -21 52 9 -3 11 -1 35 4 55 10 33 12 34 45 28 20 -4 34 -2 34
4 0 22 93 122 114 122 41 1 71 27 91 82 23 58 55 79 55 34 0 -33 20 -26 45 17
10 18 29 40 42 50 13 11 34 40 47 65 13 26 36 58 50 71 14 14 26 34 26 46 0
12 17 46 38 76 31 43 43 53 63 51 61 -7 226 10 259 28 14 8 25 9 27 3 2 -6 30
-5 76 3 118 22 168 27 166 18 -5 -26 2 -33 24 -25 12 4 38 6 57 4 49 -6 276
40 352 72 35 15 79 31 98 37 19 5 46 20 60 33 22 21 150 65 187 65 16 0 17
-73 2 -180 -6 -41 -12 -136 -15 -210 -2 -74 -9 -159 -16 -189 -10 -47 -9 -55
5 -63 13 -7 17 -24 17 -73 0 -61 11 -88 25 -65 4 6 8 37 10 68 12 193 18 232
30 222 9 -8 11 -20 6 -38 -7 -24 -6 -227 1 -249 2 -5 -6 -26 -17 -46 -18 -35
-18 -38 -2 -72 9 -20 17 -43 17 -51 0 -12 10 -14 42 -12 l43 3 18 109 c10 60
25 119 34 132 20 30 58 40 97 26 20 -8 34 -8 40 -2 15 15 29 12 23 -4 -7 -19
40 -31 59 -15 7 6 21 35 31 65 9 30 23 54 30 54 7 0 13 -5 13 -11 0 -13 55 -2
91 19 15 8 36 34 47 57 29 60 81 117 101 110 10 -3 24 7 40 30 13 19 27 32 31
30 9 -5 22 26 19 41 -2 5 3 27 9 48 10 37 9 43 -14 73 -14 18 -22 38 -18 45 4
6 7 26 6 45 -1 18 3 45 9 60 5 14 12 94 15 177 3 83 7 165 10 181 2 17 -3 65
-12 107 -16 74 -16 79 5 155 11 44 21 88 21 100 0 26 -36 60 -43 41 -12 -32
-18 46 -7 97 6 31 10 58 8 60 -2 2 -14 -1 -28 -8 -22 -11 -24 -18 -24 -94 -1
-51 -6 -87 -13 -95 -10 -9 -13 -7 -13 13 0 46 -12 39 -42 -23 -16 -34 -25 -64
-20 -67 5 -3 14 -16 21 -29 7 -13 20 -21 29 -20 13 2 17 -4 15 -26 -1 -16 -4
-31 -7 -33 -9 -10 -26 8 -26 28 0 23 -13 25 -30 4 -18 -21 -30 -9 -30 29 0 30
-2 33 -25 28 -18 -3 -25 0 -25 12 0 9 7 19 15 22 20 8 19 20 -4 43 -28 28 -13
118 28 170 36 45 38 64 11 91 -25 25 -25 57 -1 93 l18 28 124 -97 c166 -130
152 -112 133 -165 -8 -24 -19 -66 -24 -94 -4 -27 -15 -75 -24 -105 -23 -81
-15 -204 19 -278 30 -65 28 -111 -6 -215 -19 -57 -19 -59 -1 -100 19 -42 19
-46 1 -142 -27 -153 -32 -252 -20 -371 17 -155 27 -189 71 -227 21 -18 41 -43
45 -57 4 -14 16 -37 26 -52 11 -14 19 -30 19 -36 0 -5 8 -20 19 -33 18 -23 18
-27 0 -143 -13 -84 -16 -140 -11 -190 8 -80 27 -95 46 -37 13 40 48 68 96 76
36 6 36 6 37 -30 2 -86 36 -54 88 82 28 75 45 99 45 64 0 -24 10 -27 28 -9 9
9 12 7 12 -9 0 -36 16 -34 33 3 9 19 24 37 32 40 8 4 15 15 15 25 0 33 28 89
44 89 20 0 20 5 0 36 -23 35 -6 74 29 67 22 -4 24 -2 19 22 -4 21 -1 26 9 23
17 -6 16 -112 -1 -133 -6 -7 -10 -35 -9 -62 2 -26 -1 -58 -5 -70 -9 -28 5 -30
44 -6 39 22 65 95 99 272 27 140 27 144 9 149 -15 3 -18 11 -14 28 4 15 1 26
-10 32 -14 8 -14 17 -4 73 7 35 16 73 20 84 4 11 17 46 30 78 24 61 21 91 -7
85 -22 -4 -61 -130 -62 -195 -1 -24 -5 -43 -11 -43 -5 0 -10 -13 -10 -30 0
-16 -4 -30 -9 -30 -5 0 -11 -17 -15 -38 -3 -22 -16 -47 -30 -59 l-24 -21 -7
34 c-3 19 -3 39 1 46 4 6 9 32 11 57 2 25 9 51 14 56 7 7 8 -5 4 -37 -9 -61 9
-64 24 -4 6 24 13 51 17 60 4 11 1 16 -14 16 -39 0 -43 55 -8 120 16 31 22 55
19 76 -3 18 1 44 11 62 9 17 16 50 16 74 1 24 12 84 26 133 40 144 39 135 16
135 -14 0 -19 5 -17 18 2 9 12 63 21 119 9 56 20 107 25 114 14 24 23 -1 22
-64 0 -34 2 -48 4 -32 3 17 9 35 15 42 5 7 7 26 3 42 -6 29 10 111 34 175 9
22 14 26 25 17 16 -14 26 4 26 47 0 41 11 72 25 72 7 0 52 -27 101 -60 49 -33
93 -60 99 -60 6 0 22 -8 35 -17 14 -10 34 -17 45 -15 11 1 39 -8 62 -21 23
-12 70 -37 105 -56 35 -18 84 -49 109 -67 25 -18 100 -61 165 -95 65 -34 160
-84 209 -113 50 -28 110 -62 135 -75 25 -14 90 -52 145 -86 55 -35 141 -84
190 -111 50 -26 132 -76 182 -111 51 -34 145 -92 209 -128 116 -65 189 -113
312 -207 35 -26 69 -48 76 -48 6 0 32 -20 56 -45 25 -25 63 -58 85 -73 22 -14
63 -45 90 -68 65 -54 85 -59 141 -38 54 21 67 40 48 74 -24 45 -18 59 25 58
56 -1 61 6 55 63 -4 39 -17 66 -62 131 -31 45 -72 97 -91 116 -31 32 -33 39
-28 83 4 32 2 51 -7 58 -7 6 -23 34 -37 62 -17 38 -21 53 -11 57 17 5 15 22
-3 22 -8 0 -15 8 -15 17 0 9 -7 25 -17 35 -24 27 1 22 36 -8 31 -26 61 -29 69
-6 2 7 -10 18 -27 25 -17 7 -47 32 -67 55 -19 23 -43 42 -52 42 -12 0 -13 -3
-4 -12 7 -7 12 -19 12 -27 0 -10 -7 -8 -25 9 -17 16 -22 26 -13 31 7 5 -28 47
-100 119 -96 97 -111 117 -117 153 -10 64 -15 77 -31 77 -8 0 -40 28 -72 63
-31 34 -82 85 -112 112 -30 28 -115 110 -188 183 -125 124 -133 134 -115 148
17 13 17 15 1 25 -21 12 -23 40 -6 57 14 14 -9 25 -44 20 -30 -4 -34 -32 -9
-57 24 -24 26 -31 8 -31 -7 0 -35 21 -62 47 -48 47 -135 115 -202 161 -19 13
-37 31 -40 40 -4 9 -32 40 -63 68 -30 29 -62 63 -69 77 -8 14 -28 31 -45 39
-17 7 -53 34 -79 60 -26 26 -75 66 -109 89 -86 59 -138 108 -138 131 0 12 -6
18 -17 17 -21 -3 -68 16 -77 29 -3 5 62 74 145 152 83 79 163 162 179 184 15
23 38 47 51 54 13 8 34 28 46 45 149 215 163 229 366 382 296 222 475 345 501
345 5 0 30 16 56 35 26 19 67 43 91 53 57 25 153 103 138 113 -6 3 -20 4 -32
1 -19 -5 -19 -4 -5 17 8 12 34 41 56 65 22 24 45 61 51 82 8 28 25 51 60 79
27 22 57 55 67 74 10 18 37 45 59 59 22 14 43 29 46 34 3 5 20 17 37 26 17 9
58 32 89 51 32 19 71 35 87 37 15 1 40 11 55 23 14 11 43 30 64 41 20 11 37
26 37 33 0 7 6 25 12 40 14 28 33 35 41 15 3 -10 7 -10 17 -1 17 16 40 5 40
-18 0 -12 -19 -29 -55 -50 -50 -28 -91 -67 -81 -77 2 -2 12 1 23 7 23 12 130
47 154 50 4 1 12 22 18 49 7 26 19 57 27 69 10 15 11 29 5 45 -6 13 -10 16
-10 8 -1 -8 -15 -23 -31 -32 -25 -14 -30 -15 -30 -3 0 8 5 15 10 15 6 0 10 5
10 11 0 6 -9 9 -20 6 -11 -3 -20 -1 -20 4 0 5 13 9 30 9 16 0 37 9 47 19 28
31 93 52 93 31 0 -5 -7 -10 -15 -10 -8 0 -15 -5 -15 -10 0 -15 53 -1 68 18 6
9 12 43 12 78 0 61 1 63 28 66 15 2 26 8 25 13 -13 80 -11 109 9 135 16 23 18
34 11 57 -12 34 -27 37 -31 6 -5 -35 -22 -27 -22 10 0 17 -8 62 -17 100 -16
61 -20 67 -44 67 -21 0 -31 -10 -55 -57 -16 -31 -36 -59 -44 -63 -8 -4 -31
-15 -51 -24 -32 -16 -39 -16 -79 -2 -41 14 -44 14 -75 -9 -17 -14 -62 -36
-101 -50 -113 -43 -312 -161 -374 -224 -58 -58 -422 -221 -493 -221 -32 0
-115 -43 -126 -65 -8 -17 -10 -17 -10 -2 -1 9 -3 17 -6 17 -13 0 -186 -73
-191 -81 -3 -5 -13 -9 -23 -9 -29 0 -210 -96 -251 -134 -21 -19 -90 -60 -152
-91 -62 -32 -135 -73 -162 -92 -26 -19 -56 -36 -65 -38 -18 -4 -83 -40 -122
-67 -14 -10 -39 -21 -56 -24 l-32 -6 4 70 c2 39 6 75 9 80 8 14 24 129 31 222
3 47 12 101 19 120 7 19 19 55 25 80 6 25 22 80 35 124 22 75 22 82 9 155 -20
104 -84 263 -139 345 -41 62 -44 72 -39 110 5 33 2 47 -15 68 -17 22 -19 31
-10 48 13 25 4 60 -16 60 -20 0 -18 36 6 112 24 77 24 78 2 78 -14 0 -20 16
-32 78 -8 42 -19 77 -24 77 -5 0 -17 -30 -26 -67 -14 -58 -14 -68 -2 -68 9 0
12 -6 8 -16 -3 -9 -6 -18 -6 -20 0 -8 -40 -4 -65 8 -28 13 -30 45 -2 40 31 -5
18 14 -18 27 -26 9 -35 18 -35 35 0 31 26 51 61 48 21 -3 29 1 29 13 0 21 -28
31 -51 17 -35 -22 -48 -5 -42 52 l6 53 -64 33 c-51 25 -67 30 -81 21 -13 -8
-23 -8 -37 0 -29 19 -51 4 -51 -34 0 -19 -10 -49 -23 -68 -20 -29 -29 -34 -70
-37 -40 -3 -51 -8 -73 -37 -14 -19 -34 -50 -43 -68 l-18 -35 -26 82 c-15 46
-44 110 -65 144 -53 88 -204 265 -367 427 -147 148 -224 205 -415 311 -58 32
-150 87 -205 122 -186 121 -337 180 -520 202 -188 23 -285 49 -400 109 l-70
36 -166 -3 -167 -2 -283 74 c-156 41 -347 91 -424 111 -77 21 -160 47 -185 60
-34 17 -172 156 -555 561 -475 502 -516 541 -579 574 l-69 35 -1021 5 c-755 4
-1026 8 -1041 17 -35 20 -92 86 -479 550 -207 248 -394 467 -416 486 -75 64
-89 66 -680 82 -294 8 -751 22 -1015 31 -833 26 -849 26 -942 4z m771 -175
c237 -9 721 -24 1076 -34 697 -21 691 -20 771 -79 32 -24 738 -857 739 -872 0
-3 -72 -13 -160 -23 -183 -19 -188 -21 -1260 -341 -360 -107 -680 -201 -710
-207 -41 -9 -136 -10 -370 -3 -409 12 -561 10 -635 -5 -51 -11 -1893 -584
-2207 -687 -136 -45 -154 -63 -192 -200 -74 -260 -665 -2223 -677 -2245 -6
-11 -39 -22 -103 -34 -53 -9 -113 -26 -135 -38 -103 -56 -172 -101 -186 -120
-8 -12 -34 -28 -57 -37 -24 -9 -44 -22 -44 -30 -1 -8 -2 -20 -3 -26 0 -7 -19
-21 -42 -32 -40 -20 -41 -22 -43 -73 -1 -45 3 -58 26 -85 29 -33 36 -54 18
-54 -6 0 -8 -11 -4 -25 4 -17 1 -32 -9 -43 -8 -9 -19 -34 -23 -56 -5 -30 -13
-41 -35 -50 -16 -6 -29 -14 -29 -19 0 -10 123 -67 144 -67 9 0 20 8 25 18 5
10 28 24 51 31 28 8 44 20 50 37 5 13 16 24 25 24 8 0 15 7 15 15 0 15 13 17
99 20 34 1 63 26 48 41 -4 4 -27 8 -51 8 -49 1 -52 11 -7 21 20 4 42 0 70 -14
22 -12 48 -21 58 -22 12 0 9 -4 -9 -11 -37 -13 -35 -26 4 -30 32 -3 31 -3 -61
-85 -52 -46 -102 -83 -112 -83 -11 0 -16 -5 -13 -13 2 -7 -128 -132 -316 -302
-177 -159 -329 -303 -339 -320 -10 -16 -24 -46 -30 -65 -9 -30 -41 -1418 -41
-1792 0 -88 -2 -98 -18 -98 -25 0 -67 -46 -67 -73 0 -14 -13 -28 -40 -44 -22
-12 -41 -21 -42 -19 -8 8 11 36 23 36 8 0 14 5 14 10 0 13 -17 13 -25 0 -3 -5
-21 -10 -39 -10 -24 0 -43 -9 -68 -33 -25 -24 -58 -40 -114 -56 -103 -29 -235
-84 -338 -139 -6 -3 -6 3 -1 14 8 19 26 149 26 194 0 14 5 95 10 180 5 85 11
279 13 430 3 151 10 333 17 403 12 123 13 129 41 148 15 11 42 41 59 66 31 45
99 193 103 224 1 8 7 28 13 45 6 16 30 94 54 174 28 95 55 164 77 199 20 30
53 93 74 140 22 48 57 122 78 166 22 44 45 103 51 130 5 28 17 70 25 95 8 25
23 77 33 117 10 40 25 82 33 95 24 36 45 125 58 233 6 55 18 128 26 163 19 86
18 119 -7 159 -19 31 -22 52 -26 231 -3 143 -8 208 -19 237 l-16 39 49 42
c223 193 379 342 389 374 10 29 7 61 -12 175 -25 153 -30 288 -13 381 6 32 85
284 175 559 245 742 432 1355 578 1891 30 111 61 215 70 232 26 51 72 80 174
111 779 237 1554 478 2058 639 307 99 446 134 594 151 112 13 146 12 614 -4z
m2681 -1156 c58 -16 101 -50 149 -115 79 -109 156 -159 321 -209 50 -15 247
-78 438 -141 365 -120 384 -124 518 -109 99 10 132 3 211 -45 98 -59 149 -76
343 -115 262 -53 353 -92 550 -239 61 -45 164 -120 230 -166 266 -186 375
-287 538 -501 48 -63 105 -136 127 -164 44 -56 93 -142 116 -207 16 -46 214
-746 214 -758 0 -10 -93 -23 -155 -21 -56 1 -180 -24 -210 -42 -11 -7 -33 -19
-50 -26 -24 -10 -28 -10 -17 0 6 7 12 17 12 21 0 13 -35 9 -56 -7 -29 -22 -37
-18 -32 16 3 20 0 33 -9 36 -20 8 -195 -15 -207 -27 -7 -7 -6 -14 2 -22 7 -7
12 -20 12 -30 0 -13 14 -20 60 -30 l60 -12 -33 -14 c-17 -8 -45 -14 -60 -13
-15 1 -37 -3 -47 -9 -16 -8 -26 -7 -42 5 -13 8 -33 15 -45 15 -14 0 -23 6 -23
15 0 27 -88 1 -155 -45 -25 -17 -50 -30 -54 -28 -5 2 -49 55 -97 118 -136 175
-274 307 -456 435 -411 288 -468 319 -642 351 -176 33 -213 44 -331 105 l-120
62 -137 -2 -137 -2 -353 117 c-194 64 -373 127 -398 139 -25 13 -63 43 -86 67
-23 23 -229 271 -458 550 -230 279 -430 517 -446 528 -82 59 -108 63 -375 71
-137 4 -288 8 -335 8 -47 1 -80 5 -75 10 10 9 989 305 1229 372 221 62 417 84
511 58z m2197 -32 c51 -25 116 -90 539 -540 518 -552 544 -578 598 -601 37
-16 568 -159 828 -222 145 -36 150 -36 239 -25 106 13 182 3 254 -34 82 -41
213 -76 379 -101 252 -37 241 -33 536 -212 382 -232 470 -294 595 -421 126
-127 296 -332 328 -396 28 -57 102 -311 102 -353 0 -57 -49 -281 -71 -324 -11
-22 -32 -74 -46 -117 -14 -42 -34 -93 -45 -114 -22 -44 -92 -297 -167 -602
-28 -115 -58 -226 -65 -245 -25 -64 -66 -201 -66 -221 0 -11 -8 -41 -19 -67
-10 -26 -26 -74 -36 -107 -9 -33 -22 -72 -27 -87 -6 -16 -8 -37 -5 -49 3 -11
-2 -44 -12 -72 -14 -42 -16 -67 -10 -129 4 -43 10 -92 14 -109 l7 -32 -33 9
c-47 12 -187 10 -225 -3 -29 -10 -34 -9 -60 18 l-28 29 -12 -36 c-15 -45 -30
-62 -44 -48 -9 9 9 153 29 224 6 19 18 69 27 110 9 41 21 80 26 86 4 7 12 40
17 75 4 35 17 114 29 174 39 202 52 287 72 454 11 91 26 216 35 276 25 190 26
213 14 282 -18 106 -98 313 -120 313 -4 0 -9 15 -13 32 -4 18 -15 51 -25 73
-11 22 -25 64 -32 93 -12 47 -16 53 -35 48 -14 -4 -24 -1 -27 8 -3 8 -17 22
-31 31 -21 14 -32 15 -56 6 -27 -9 -29 -8 -21 6 15 28 -26 100 -62 107 -40 8
-50 -1 -43 -38 4 -17 11 -56 16 -86 4 -30 16 -80 25 -110 16 -52 16 -56 -1
-88 -13 -24 -23 -32 -37 -28 -25 6 -51 -53 -77 -175 -25 -114 -54 -164 -75
-129 -11 18 -25 10 -25 -15 0 -36 -30 -105 -46 -105 -8 0 -14 9 -14 19 0 11
-4 23 -10 26 -5 3 -10 15 -10 26 0 10 -6 19 -14 19 -9 0 -12 8 -8 25 3 18 0
25 -12 25 -11 0 -16 -9 -16 -29 0 -15 -9 -40 -20 -54 -11 -14 -24 -47 -29 -73
-5 -26 -15 -53 -23 -58 -21 -17 -55 -79 -63 -117 -4 -19 -34 -86 -66 -149 -33
-63 -59 -122 -59 -131 0 -9 -23 -47 -52 -85 -66 -87 -159 -267 -147 -285 13
-21 -2 -32 -16 -12 -21 30 -505 853 -505 858 0 3 14 5 30 5 31 0 80 25 80 41
0 5 -34 9 -76 9 -63 0 -75 3 -72 16 4 18 106 56 111 41 2 -6 17 -5 41 3 28 9
67 10 145 4 58 -4 98 -9 89 -11 -10 -3 -18 -11 -18 -19 0 -18 145 -20 187 -2
l28 12 -40 6 c-31 6 -34 7 -12 9 15 0 30 8 33 16 5 13 24 14 121 8 110 -6 115
-5 111 13 -2 11 -21 27 -46 38 -23 11 -41 24 -39 30 4 11 58 51 80 59 9 3 7
13 -5 36 -23 42 -12 46 93 37 92 -8 106 2 69 54 -17 23 -29 30 -56 30 -19 0
-46 7 -60 16 -13 9 -39 20 -57 24 -28 7 -29 8 -7 9 14 1 36 8 50 16 14 8 34
15 45 15 11 0 27 5 35 10 13 8 13 13 -2 42 -24 48 -29 78 -12 78 12 0 34 29
34 44 0 14 -83 64 -97 59 -13 -5 -11 -11 13 -30 l29 -23 -41 0 c-28 0 -47 -6
-59 -20 -22 -25 -48 -25 -86 -3 -30 18 -38 33 -17 33 9 0 9 3 1 11 -16 16
-106 36 -270 59 -176 25 -293 27 -293 5 0 -8 7 -15 15 -15 8 0 15 -4 15 -10 0
-13 -10 -13 -49 1 -25 9 -30 15 -26 30 10 30 -36 42 -175 43 l-125 1 -82 305
c-45 168 -98 356 -119 418 -44 135 -135 324 -196 407 -78 106 -300 368 -374
441 -65 64 -261 212 -564 424 -213 149 -331 197 -575 234 -122 18 -199 44
-285 96 -126 76 -187 89 -311 69 -64 -10 -90 -10 -127 0 -57 15 -809 255 -871
278 -43 15 -131 86 -131 104 0 6 401 8 958 7 l957 -3 57 -28z m-4982 -526 c20
-5 5 -12 -75 -35 -193 -55 -198 -57 -240 -100 -36 -37 -52 -73 -149 -336 -173
-470 -690 -1867 -727 -1962 l-33 -88 -101 0 c-55 0 -161 -5 -235 -11 -74 -7
-182 -13 -240 -14 -127 -3 -214 -11 -300 -30 -36 -8 -119 -26 -185 -41 -66
-14 -181 -39 -255 -55 -74 -16 -159 -37 -190 -45 -30 -9 -84 -24 -120 -34 -36
-10 -120 -34 -188 -54 -68 -20 -145 -36 -172 -36 -27 0 -52 -4 -55 -10 -3 -5
-16 -10 -29 -10 -15 0 -32 -15 -55 -46 -18 -25 -34 -44 -37 -41 -3 3 31 117
75 253 201 629 395 1279 515 1728 31 115 63 217 72 227 23 25 -8 15 1014 334
503 158 985 309 1070 337 85 27 184 56 220 63 69 14 376 18 420 6z m9860
-2211 c0 -5 -4 -10 -10 -10 -5 0 -10 5 -10 10 0 6 5 10 10 10 6 0 10 -4 10
-10z m-3883 -66 c-3 -3 -12 -4 -19 -1 -8 3 -5 6 6 6 11 1 17 -2 13 -5z m1433
-50 c0 -2 -9 -4 -20 -4 -11 0 -20 4 -20 9 0 5 9 7 20 4 11 -3 20 -7 20 -9z
m-1421 -85 c-36 -46 -35 -45 -104 -53 -40 -5 -45 -4 -25 5 13 5 27 13 30 17 3
4 24 16 48 26 23 11 47 25 53 33 6 7 16 13 21 13 5 0 -5 -18 -23 -41z m-332
25 c-3 -3 -12 -4 -19 -1 -8 3 -5 6 6 6 11 1 17 -2 13 -5z m1092 -60 c-15 -18
-35 -18 -42 0 -4 10 2 16 16 18 31 5 40 -1 26 -18z m274 -1 c-7 -2 -21 -2 -30
0 -10 3 -4 5 12 5 17 0 24 -2 18 -5z m97 -2 c0 -18 -25 -29 -37 -16 -6 7 -9
16 -6 19 10 9 43 7 43 -3z m-804 -26 c21 -23 21 -25 4 -25 -10 0 -27 -3 -37
-7 -16 -6 -16 -5 -4 10 11 14 11 17 0 17 -8 0 -21 -4 -29 -9 -23 -15 -33 -1
-14 20 23 26 52 24 80 -6z m3754 -5 c0 -5 -2 -10 -4 -10 -3 0 -8 5 -11 10 -3
6 -1 10 4 10 6 0 11 -4 11 -10z m-4050 -14 c-17 -15 -75 -36 -99 -36 -26 1 67
44 104 49 5 0 3 -5 -5 -13z m357 8 c-3 -3 -12 -4 -19 -1 -8 3 -5 6 6 6 11 1
17 -2 13 -5z m-222 -14 c-3 -5 -12 -10 -18 -10 -7 0 -6 4 3 10 19 12 23 12 15
0z m-150 -50 c-3 -5 -16 -10 -28 -9 -21 0 -21 1 -2 9 28 12 37 12 30 0z m6283
-356 c29 -14 31 -18 20 -37 -7 -14 -13 -17 -16 -9 -5 16 -27 15 -42 -3 -10
-12 -14 -12 -26 0 -18 18 -18 24 3 47 20 22 22 22 61 2z m-12445 -42 c27 -30
1 -40 -29 -11 -29 27 -33 55 -6 40 9 -5 25 -18 35 -29z m6377 -2 c0 -5 11 -10
24 -10 14 0 28 5 31 10 3 6 13 10 22 10 13 0 13 -3 3 -15 -7 -8 -17 -15 -23
-15 -6 0 -19 -7 -29 -16 -14 -14 -20 -14 -33 -4 -11 9 -25 10 -57 2 -47 -12
-53 -10 -45 12 9 24 107 47 107 26z m597 -130 c28 -61 165 -299 302 -529 138
-230 251 -423 251 -429 0 -6 -9 -16 -20 -22 -11 -6 -29 -30 -41 -53 -12 -23
-32 -56 -45 -74 -13 -17 -24 -37 -24 -44 0 -7 -6 -20 -14 -28 -17 -19 -117
-208 -141 -265 l-16 -39 33 21 c18 12 35 29 36 39 5 23 73 123 84 123 13 0 9
-26 -5 -39 -8 -6 -19 -28 -25 -49 -7 -21 -46 -83 -87 -137 -41 -54 -85 -115
-97 -136 -27 -49 -44 -51 -21 -4 9 19 21 35 25 35 5 0 6 5 3 10 -10 17 -20 11
-34 -20 -7 -17 -17 -30 -22 -28 -7 3 -1060 1635 -1089 1688 -8 16 -8 18 5 14
8 -3 46 3 84 15 82 25 129 27 137 6 7 -18 99 -21 110 -4 3 6 16 8 29 5 14 -4
28 0 35 9 17 20 32 19 64 -6 17 -13 33 -18 44 -14 9 4 64 11 122 16 58 5 134
17 170 28 36 11 72 20 80 20 9 0 34 -40 67 -109z m-7767 50 c0 -5 -10 -10 -22
-10 -19 0 -20 2 -8 10 19 13 30 13 30 0z m3554 4 c28 -11 17 -33 -21 -43 -21
-6 -47 -17 -59 -25 -26 -18 -47 -6 -42 25 2 19 12 25 53 35 28 6 51 12 52 13
1 0 8 -2 17 -5z m-3694 -35 c0 -4 -9 -13 -19 -18 -15 -8 -20 -7 -25 5 -10 27
-7 31 19 26 14 -2 25 -8 25 -13z m-160 -18 c0 -19 -73 -69 -116 -80 -51 -13
-114 -14 -114 -3 0 17 49 35 79 29 36 -7 61 0 61 17 0 7 15 20 33 29 37 18 57
21 57 8z m977 -54 c-6 -47 -13 -54 -35 -41 -24 15 -27 62 -6 85 26 29 48 6 41
-44z m4543 -19 c0 -5 -11 -20 -25 -34 -23 -23 -31 -25 -75 -19 -36 5 -58 3
-81 -9 -17 -9 -36 -13 -41 -10 -5 3 -17 -1 -27 -10 -10 -9 -36 -20 -57 -23
-22 -3 -56 -14 -76 -24 -41 -21 -88 -25 -88 -8 0 6 -9 8 -21 4 -14 -5 -19 -3
-15 3 3 6 21 14 39 17 17 4 57 22 88 41 34 21 70 34 90 34 22 0 55 14 94 38
l59 38 68 -15 c37 -8 68 -18 68 -23z m-991 -27 c-14 -11 -26 -15 -28 -9 -4 12
17 28 38 28 8 0 3 -8 -10 -19z m-4839 1 c0 -4 15 -15 33 -24 31 -17 61 -17
109 -3 12 4 -278 -234 -647 -529 l-670 -536 -3 43 c-2 24 5 64 14 88 9 24 19
62 21 84 3 22 9 45 15 52 5 6 9 28 9 50 -1 100 24 205 53 226 17 12 17 14 2
20 -9 4 -16 18 -16 34 0 26 6 30 83 56 45 16 114 43 152 62 39 18 110 50 158
70 48 21 105 50 126 65 20 15 47 31 60 35 12 3 51 29 86 56 35 27 75 49 87 49
13 0 41 5 62 11 34 9 37 13 22 21 -9 5 -29 7 -44 4 -17 -3 -10 2 16 14 49 22
63 20 55 -10 -6 -21 3 -25 26 -11 12 8 12 13 3 24 -10 12 -7 17 17 27 17 6 43
9 60 5 19 -4 40 -1 58 9 31 17 53 20 53 8z m9400 -37 c0 -14 -4 -25 -10 -25
-11 0 -14 33 -3 43 11 11 13 8 13 -18z m-3695 -95 c3 -5 1 -10 -4 -10 -6 0
-11 5 -11 10 0 6 2 10 4 10 3 0 8 -4 11 -10z m-405 -6 c0 -4 -8 -13 -17 -20
-17 -13 -17 -13 -1 -14 10 0 15 -6 13 -13 -10 -24 32 -39 78 -26 23 7 58 13
77 14 19 2 53 8 75 14 60 16 106 14 99 -4 -7 -18 -10 -18 50 0 27 8 51 14 52
12 5 -5 -17 -91 -26 -102 -22 -27 -70 -135 -70 -158 0 -35 -20 -78 -47 -100
-13 -10 -39 -51 -58 -91 -23 -48 -49 -84 -76 -107 -75 -62 -104 -95 -136 -155
-35 -67 -96 -234 -85 -234 13 0 59 65 71 103 7 20 16 37 21 37 12 0 -18 -101
-37 -121 -8 -10 -20 -39 -27 -65 -28 -102 -56 -145 -82 -123 -11 9 -16 6 -23
-14 -5 -14 -7 -34 -4 -45 2 -11 -2 -33 -10 -48 -8 -16 -12 -35 -10 -42 3 -7
-1 -20 -8 -29 -20 -23 -79 -211 -73 -228 4 -8 -1 -43 -11 -78 -18 -67 -40 -88
-130 -130 -40 -18 -286 -162 -380 -222 -27 -17 -84 -50 -126 -73 -82 -46 -122
-81 -117 -105 2 -9 -6 -23 -17 -31 -20 -14 -20 -15 8 -43 15 -16 27 -38 27
-48 0 -20 66 -84 86 -85 8 0 9 11 4 37 -14 62 5 70 61 24 52 -43 79 -47 109
-17 32 35 59 36 36 1 -28 -42 -18 -44 53 -9 97 48 125 87 35 49 l-35 -14 18
30 c29 50 43 57 61 31 17 -25 39 -28 66 -7 11 8 26 15 34 15 19 0 8 -95 -19
-153 -21 -48 -27 -129 -7 -109 7 7 16 12 20 12 11 0 10 -61 -2 -96 -5 -16 -21
-68 -35 -116 l-26 -88 -35 0 c-39 0 -44 -12 -12 -34 25 -18 24 -21 -18 -30
-22 -5 -35 -2 -44 9 -7 8 -24 15 -39 16 -24 0 -23 1 9 12 53 18 42 32 -29 35
-58 3 -67 0 -92 -24 -29 -28 -49 -25 -49 7 0 11 -7 22 -15 25 -24 10 -17 22
13 26 20 2 28 9 30 26 3 22 7 23 50 19 26 -3 60 -9 77 -13 l30 -7 -30 36 c-20
24 -36 35 -49 32 -28 -6 -89 22 -80 36 4 7 -3 19 -16 29 -28 21 -57 12 -103
-29 -26 -24 -29 -25 -41 -9 -15 21 -64 41 -83 34 -18 -7 -16 -51 3 -67 14 -12
14 -14 -6 -21 -27 -10 -17 -28 16 -28 29 0 64 -32 64 -60 0 -12 7 -20 17 -20
40 0 -6 -18 -57 -22 l-55 -5 38 15 c73 29 37 41 -97 33 -71 -5 -91 -10 -100
-24 -9 -15 -7 -22 10 -36 21 -17 21 -17 2 -41 -18 -23 -18 -23 3 -46 26 -28
27 -27 -27 -42 -52 -15 -54 -15 -54 2 0 23 -19 29 -36 12 -8 -9 -20 -16 -25
-16 -5 0 -9 -6 -9 -14 0 -7 -7 -19 -15 -26 -12 -10 -15 -7 -21 15 -6 23 -10
26 -35 21 -29 -5 -82 -57 -107 -102 -7 -14 -22 -24 -35 -25 -12 0 -62 -11
-112 -24 l-90 -23 -18 20 c-19 22 -18 71 2 91 15 15 14 30 -3 24 -7 -3 -18 -1
-24 5 -14 14 -73 -1 -79 -21 -3 -9 -22 -29 -43 -46 -43 -33 -49 -45 -22 -46
10 0 6 -4 -10 -9 -14 -4 -40 -16 -57 -26 -17 -10 -33 -15 -37 -11 -11 10 25
57 51 67 35 13 48 46 42 101 -4 35 -2 51 9 60 19 15 92 112 121 159 12 19 30
42 40 51 10 9 57 72 105 140 48 68 125 172 170 231 89 114 134 174 185 247 18
25 53 73 77 106 25 33 49 71 55 85 9 23 138 196 208 279 29 35 52 71 53 83 0
4 -9 10 -21 13 -19 6 -20 8 -3 26 10 12 25 17 38 13 26 -6 68 34 90 87 15 37
46 71 46 51 0 -6 11 -23 24 -37 20 -21 28 -24 48 -16 14 5 37 24 52 42 24 28
27 39 22 71 -5 31 -2 42 16 60 29 29 47 79 37 104 -15 38 -9 51 30 69 24 10
38 22 34 30 -2 8 1 24 8 37 7 13 12 33 10 45 -2 23 24 43 58 43 14 0 19 5 15
15 -7 18 41 85 60 85 8 0 28 14 46 30 30 28 32 34 28 82 -3 31 0 68 8 91 14
41 7 76 -23 110 -15 16 -17 16 -35 1 -17 -16 -18 -16 -18 5 0 12 -6 24 -13 26
-7 3 -13 22 -13 43 -1 33 4 42 32 62 23 15 34 31 34 46 0 19 5 24 25 24 30 0
31 4 5 32 -28 30 -25 38 12 36 24 -2 34 2 43 19 10 19 13 20 26 8 11 -11 23
-12 54 -5 23 5 42 5 45 0 9 -15 105 14 108 33 2 10 -3 17 -13 17 -9 0 -24 14
-33 31 -16 28 -20 30 -58 25 -51 -7 -88 22 -48 38 8 3 13 2 10 -3 -6 -10 32
-8 81 4 30 7 48 28 39 44 -3 4 11 8 30 9 19 2 34 0 34 -4z m-240 -30 c0 -3 -7
-21 -16 -40 -11 -22 -23 -34 -37 -34 -20 0 -20 0 -1 21 16 17 16 22 4 29 -8 6
-19 10 -25 10 -5 0 -3 5 5 10 16 11 70 14 70 4z m-2880 -53 c0 -22 -78 -27
-106 -6 -17 13 -14 14 44 15 34 0 62 -4 62 -9z m10391 -84 c-13 -12 -20 -15
-16 -7 14 26 28 41 33 35 3 -3 -5 -16 -17 -28z m-14606 -117 c-3 -5 -11 -10
-16 -10 -6 0 -7 5 -4 10 3 6 11 10 16 10 6 0 7 -4 4 -10z m4017 -53 c-24 -11
-38 -5 -28 11 3 6 16 8 28 4 l22 -5 -22 -10z m-4090 -279 c-17 -51 -33 -106
-36 -123 -7 -29 -18 -72 -55 -205 -36 -126 -114 -470 -115 -506 0 -21 4 -39
11 -41 12 -4 26 33 39 102 5 27 9 34 12 20 2 -11 8 -25 13 -31 6 -7 5 -22 -1
-38 -14 -39 -13 -63 2 -48 16 16 68 16 68 0 -1 -40 -13 -58 -35 -52 -13 3 -26
1 -29 -5 -4 -6 -16 -11 -27 -11 -10 0 -19 -4 -19 -9 0 -5 -3 -24 -6 -42 -5
-27 -4 -32 6 -22 7 6 18 22 24 35 7 14 22 24 39 26 34 4 35 -11 2 -36 -14 -11
-25 -28 -25 -38 0 -11 -4 -25 -9 -33 -6 -9 -5 -23 1 -37 8 -16 6 -36 -7 -75
-20 -62 -50 -99 -78 -99 -21 0 -127 -76 -127 -91 0 -5 -8 -9 -18 -9 -26 0 -78
-57 -74 -82 2 -13 -10 -34 -34 -59 -32 -33 -38 -45 -39 -88 -2 -43 1 -51 22
-62 l23 -13 -31 -32 -32 -33 42 -40 c43 -41 51 -61 26 -61 -8 0 -15 -4 -15 -9
0 -18 32 -21 61 -6 35 19 36 15 7 -30 -22 -33 -26 -35 -77 -35 l-54 0 23 -25
c13 -14 29 -25 36 -25 8 0 -48 -94 -124 -209 -118 -181 -141 -210 -162 -210
-15 -1 -32 -7 -39 -13 -10 -11 -11 14 -7 127 3 77 11 466 17 865 10 716 11
726 32 767 15 28 139 147 407 391 212 192 387 348 389 346 1 -1 -11 -45 -27
-96z m9113 -368 c4 -6 -6 -10 -22 -9 -25 0 -26 1 -8 9 11 5 21 9 22 9 1 1 5
-3 8 -9z m190 -90 c-28 -18 -97 -29 -81 -12 11 11 68 30 91 31 16 1 15 -3 -10
-19z m-5535 -80 c0 -5 -4 -10 -10 -10 -5 0 -10 5 -10 10 0 6 5 10 10 10 6 0
10 -4 10 -10z m5155 0 c-3 -5 -11 -10 -16 -10 -6 0 -7 5 -4 10 3 6 11 10 16
10 6 0 7 -4 4 -10z m-7270 -50 c-3 -5 -13 -10 -21 -10 -8 0 -14 5 -14 10 0 6
9 10 21 10 11 0 17 -4 14 -10z m7428 -156 c-9 -15 -19 -21 -21 -15 -4 13 16
41 29 41 5 0 2 -12 -8 -26z m4127 -4 c0 -5 -5 -10 -11 -10 -5 0 -7 5 -4 10 3
6 8 10 11 10 2 0 4 -4 4 -10z m-13270 -71 c0 -5 -7 -9 -15 -9 -8 0 -15 7 -15
15 0 9 6 12 15 9 8 -4 15 -10 15 -15z m8837 6 c6 -16 -22 -44 -44 -45 -19 0
-16 31 5 46 23 18 31 17 39 -1z m4192 -50 c0 -35 -4 -67 -9 -70 -5 -3 -6 10
-3 30 6 36 -11 50 -21 18 -3 -10 -3 -1 0 19 4 31 2 37 -11 32 -24 -9 -18 10 8
22 12 7 25 12 29 13 4 0 7 -28 7 -64z m-11606 -2 c-7 -2 -19 -2 -25 0 -7 3 -2
5 12 5 14 0 19 -2 13 -5z m11797 -49 c0 -14 -3 -14 -15 -4 -8 7 -15 14 -15 16
0 2 7 4 15 4 8 0 15 -7 15 -16z m0 -52 c0 -15 -2 -15 -10 -2 -13 20 -13 33 0
25 6 -3 10 -14 10 -23z m-916 -114 c8 -13 7 -26 -1 -48 -12 -31 -8 -60 7 -60
10 0 37 26 42 40 1 5 13 7 25 4 13 -4 21 -10 18 -14 -3 -4 2 -14 11 -21 13
-10 20 -10 42 3 39 22 105 33 100 16 -3 -7 -17 -14 -31 -16 -30 -4 -30 -4 -21
-26 3 -9 15 -16 25 -16 32 0 22 -36 -17 -60 -33 -21 -35 -25 -29 -61 6 -34 4
-38 -14 -36 -11 1 -23 7 -25 14 -8 19 -36 16 -34 -4 3 -37 -2 -53 -17 -53 -17
0 -19 -11 -6 -25 5 -6 12 -21 16 -34 6 -19 4 -23 -8 -18 -9 3 -21 -1 -27 -9
-19 -21 -33 -17 -28 9 4 21 1 23 -21 20 -21 -4 -23 -2 -11 6 8 6 25 11 38 11
15 0 22 6 22 20 0 26 -38 42 -65 27 -17 -9 -18 -8 -7 5 10 13 7 20 -22 42 -21
16 -41 24 -53 20 -11 -4 -14 -3 -7 3 6 4 14 18 18 31 4 12 14 22 21 22 18 0
49 65 41 86 -8 20 -31 12 -30 -10 1 -9 -2 -16 -7 -16 -5 0 -9 11 -9 24 0 27
-24 51 -40 41 -6 -4 -16 8 -24 27 -18 41 -6 58 40 58 18 0 36 5 39 11 9 14 36
7 49 -13z m-1635 -80 c-7 -13 -14 -18 -16 -11 -3 7 1 22 8 35 7 13 14 18 16
11 3 -7 -1 -22 -8 -35z m-3503 -57 c-3 -5 -22 -11 -42 -13 l-37 -4 24 18 c13
10 29 22 34 27 11 10 29 -14 21 -28z m-102 -37 c23 -9 20 -18 -16 -38 -18 -11
-43 -28 -55 -39 -13 -11 -23 -17 -23 -13 0 6 71 96 76 96 1 0 9 -3 18 -6z
m4074 -565 c3 -364 -2 -488 -21 -493 -16 -5 -71 -19 -182 -46 -107 -26 -388
-90 -395 -90 -3 1 8 8 23 16 18 10 27 21 23 30 -4 9 4 19 20 26 14 7 35 30 46
52 11 23 28 50 37 61 10 11 28 47 40 80 24 64 106 197 184 297 26 33 47 68 47
77 0 22 39 133 51 146 5 5 9 17 9 27 0 11 11 30 25 44 14 14 25 28 25 31 0 20
44 93 54 90 8 -3 12 -102 14 -348z m-4311 195 c-3 -3 -12 -4 -19 -1 -8 3 -5 6
6 6 11 1 17 -2 13 -5z m5292 -63 c19 -37 19 -39 2 -55 -10 -9 -20 -16 -23 -16
-3 0 -5 25 -4 55 0 30 2 55 3 55 1 0 12 -17 22 -39z m-5399 5 c0 -3 -4 -8 -10
-11 -5 -3 -10 -1 -10 4 0 6 5 11 10 11 6 0 10 -2 10 -4z m-7010 -95 c0 -12
-39 -25 -48 -16 -7 7 17 25 36 25 6 0 12 -4 12 -9z m12389 -131 c1 -27 -1 -50
-4 -50 -10 0 -75 54 -75 62 0 9 50 37 66 38 6 0 11 -22 13 -50z m82 -4 c-22
-35 -23 -77 -3 -84 13 -4 17 -32 5 -32 -3 0 -14 7 -24 15 -19 18 -13 68 15
110 25 38 31 30 7 -9z m-10011 4 c-24 -15 -37 -11 -16 5 11 8 22 12 25 9 3 -3
-1 -9 -9 -14z m-2412 -136 c1 0 -5 -18 -13 -38 -13 -31 -14 -44 -4 -73 6 -19
9 -35 7 -36 -1 -1 -17 -12 -35 -25 -21 -14 -44 -21 -65 -20 -28 3 -33 0 -31
-19 2 -16 -7 -25 -39 -37 -22 -9 -42 -16 -43 -14 -5 6 160 245 170 247 5 1 10
7 11 14 2 27 5 29 22 16 9 -7 18 -14 20 -15z m10381 -123 c-20 -58 -43 -90
-56 -77 -3 3 -1 18 6 33 12 28 61 103 67 103 1 0 -6 -27 -17 -59z m1811 -31
c0 -5 -4 -10 -10 -10 -5 0 -10 5 -10 10 0 6 5 10 10 10 6 0 10 -4 10 -10z
m-2695 -70 c-10 -11 -20 -18 -23 -15 -3 3 3 14 13 25 10 11 20 18 23 15 3 -3
-3 -14 -13 -25z m-2483 3 c2 -5 26 -20 53 -34 41 -21 51 -32 53 -55 3 -29 2
-30 -39 -26 -49 5 -74 23 -100 74 -14 27 -15 38 -6 41 19 8 35 8 39 0z m3289
-44 c-5 -13 -10 -19 -10 -12 -1 15 10 45 15 40 3 -2 0 -15 -5 -28z m-851 -14
c-7 -9 -15 -13 -18 -10 -3 2 1 11 8 20 7 9 15 13 18 10 3 -2 -1 -11 -8 -20z
m-2480 -25 c0 -5 -4 -10 -10 -10 -5 0 -10 5 -10 10 0 6 5 10 10 10 6 0 10 -4
10 -10z m-6213 -95 c19 -30 20 -37 7 -49 -8 -8 -14 -26 -14 -40 0 -28 -15 -43
-18 -18 -8 68 -11 142 -4 142 4 -1 17 -16 29 -35z m5053 0 c-7 -9 -15 -13 -18
-10 -3 2 1 11 8 20 7 9 15 13 18 10 3 -2 -1 -11 -8 -20z m-4790 -130 c-14 -8
-29 -14 -35 -14 -5 0 1 6 15 14 14 8 30 14 35 14 6 0 -1 -6 -15 -14z m4545 -5
c3 -5 -1 -10 -9 -10 -8 0 -18 5 -21 10 -3 6 1 10 9 10 8 0 18 -4 21 -10z
m6936 -88 l41 -38 -26 -17 c-15 -10 -27 -13 -31 -7 -3 6 -18 7 -32 4 -20 -5
-24 -4 -18 7 5 7 8 30 6 51 -1 21 3 38 8 38 6 0 29 -17 52 -38z m-11741 8 c0
-5 -5 -10 -11 -10 -5 0 -7 5 -4 10 3 6 8 10 11 10 2 0 4 -4 4 -10z m11532 -31
c5 -31 -19 -59 -49 -59 -7 0 -22 -9 -33 -20 l-20 -20 0 25 c0 14 8 29 19 35
11 5 28 24 38 40 22 38 40 38 45 -1z m-13202 17 c0 -11 -19 -15 -25 -6 -3 5 1
10 9 10 9 0 16 -2 16 -4z m-75 -26 c-3 -5 -14 -10 -23 -10 -15 0 -15 2 -2 10
20 13 33 13 25 0z m13129 -91 c-4 -28 -2 -55 6 -69 10 -19 9 -27 -8 -49 -26
-36 -50 -39 -58 -7 -3 14 -3 34 1 43 4 10 9 42 10 71 2 38 8 57 21 67 26 19
35 1 28 -56z m-2554 42 c0 -12 -20 -25 -27 -18 -7 7 6 27 18 27 5 0 9 -4 9 -9z
m-358 -53 c-12 -12 -24 -19 -28 -15 -4 3 4 15 17 26 31 25 39 17 11 -11z m40
0 c-7 -7 -12 -8 -12 -2 0 14 12 26 19 19 2 -3 -1 -11 -7 -17z m-247 -18 c9
-14 -4 -70 -16 -70 -5 0 -16 11 -25 25 -13 20 -14 28 -4 40 14 17 36 20 45 5z
m-1904 -134 c5 -6 15 5 24 27 19 46 25 47 25 2 0 -25 -5 -37 -17 -41 -10 -3
-26 -10 -35 -15 -10 -5 -19 -9 -20 -9 -4 0 -2 70 2 90 2 8 5 2 7 -15 3 -16 9
-34 14 -39z m1722 -16 c-3 -12 -8 -19 -11 -16 -5 6 5 36 12 36 2 0 2 -9 -1
-20z m-5363 -52 c-1 -28 -2 -30 -11 -15 -6 10 -8 25 -5 33 9 24 16 16 16 -18z
m8660 18 c0 -8 -4 -18 -10 -21 -5 -3 -10 3 -10 14 0 12 5 21 10 21 6 0 10 -6
10 -14z m617 -28 c-3 -8 -6 -5 -6 6 -1 11 2 17 5 13 3 -3 4 -12 1 -19z m-3417
-48 c0 -5 -4 -10 -10 -10 -5 0 -10 5 -10 10 0 6 5 10 10 10 6 0 10 -4 10 -10z
m1455 -106 c-29 -18 -49 -24 -72 -20 -18 3 -33 1 -33 -4 0 -4 -10 -8 -22 -7
-13 0 -35 -3 -50 -7 -44 -13 -34 10 12 28 22 9 55 16 73 17 17 1 43 5 57 9 14
4 36 8 50 9 22 0 21 -2 -15 -25z m1114 -75 c21 -28 22 -34 11 -80 -10 -42 -16
-49 -36 -49 -20 0 -24 -5 -24 -31 0 -44 -24 -32 -28 15 -2 21 1 43 6 49 5 7
17 38 26 70 9 31 18 57 19 57 2 0 13 -14 26 -31z m-1042 5 c-3 -3 -12 -4 -19
-1 -8 3 -5 6 6 6 11 1 17 -2 13 -5z m1253 -23 c0 -21 -13 -41 -26 -41 -17 0
-18 22 -2 38 14 14 28 16 28 3z m110 -23 c0 -7 -5 -20 -10 -28 -8 -12 -10 -9
-10 13 0 15 5 27 10 27 6 0 10 -6 10 -12z m-11801 -152 c54 -26 59 -38 27 -56
-23 -12 -35 -10 -111 20 -84 32 -114 58 -55 47 22 -5 30 -3 30 8 0 19 50 11
109 -19z m3631 -76 c0 -5 -9 -10 -20 -10 -11 0 -20 5 -20 10 0 6 9 10 20 10
11 0 20 -4 20 -10z m3279 -118 l-2 -27 -4 26 c-2 15 -13 35 -24 45 -10 9 -19
22 -19 28 0 6 12 -2 25 -17 15 -17 24 -39 24 -55z m51 23 c7 -9 10 -18 7 -21
-10 -11 -37 5 -37 21 0 19 14 19 30 0z m5585 -146 c-4 -29 -15 -91 -25 -138
-18 -84 -18 -87 1 -114 17 -23 18 -33 9 -67 -15 -54 -34 -42 -25 16 4 29 2 44
-4 44 -6 0 -11 -11 -11 -24 0 -14 -4 -28 -10 -31 -15 -9 -12 76 5 175 8 47 15
99 15 115 0 32 24 75 42 75 6 0 7 -18 3 -51z m145 -52 c0 -13 -6 -32 -14 -43
-14 -18 -15 -18 -22 -1 -8 21 10 67 26 67 5 0 10 -10 10 -23z"/>
<path d="M13600 6490 c0 -5 5 -10 10 -10 6 0 10 5 10 10 0 6 -4 10 -10 10 -5
0 -10 -4 -10 -10z"/>
<path d="M16240 6401 c0 -5 -9 -11 -20 -14 -14 -3 -20 -14 -20 -31 0 -14 -1
-29 -2 -33 -5 -14 37 -14 56 0 15 11 17 21 12 50 -4 21 -11 37 -16 37 -6 0
-10 -4 -10 -9z"/>
<path d="M16285 6259 c-4 -6 -5 -13 -2 -16 7 -7 27 6 27 18 0 12 -17 12 -25
-2z"/>
<path d="M15505 5780 c-12 -19 8 -30 63 -37 43 -5 53 -3 58 11 9 22 8 22 -58
30 -38 5 -58 4 -63 -4z"/>
<path d="M15140 4230 c0 -5 5 -10 10 -10 6 0 10 5 10 10 0 6 -4 10 -10 10 -5
0 -10 -4 -10 -10z"/>
<path d="M15127 4203 c-4 -3 -7 -16 -7 -27 1 -21 1 -21 15 -2 8 11 15 23 15
28 0 10 -14 11 -23 1z"/>
<path d="M12023 5433 c-51 -17 -58 -38 -10 -28 41 9 67 23 67 35 0 13 -5 12
-57 -7z"/>
<path d="M12130 5374 c0 -11 5 -14 16 -10 9 3 22 6 30 6 8 0 14 5 14 10 0 6
-13 10 -30 10 -21 0 -30 -5 -30 -16z"/>
<path d="M11447 4680 c-14 -11 -28 -34 -32 -50 -4 -17 -13 -30 -20 -30 -8 0
-26 -10 -41 -23 -22 -19 -25 -28 -20 -54 14 -62 76 -84 76 -27 0 31 35 84 56
84 17 0 16 3 5 -38 -5 -17 -6 -32 -2 -32 4 0 26 20 50 44 39 40 43 48 37 77
-13 66 -60 87 -109 49z"/>
<path d="M11737 4473 c-4 -3 -7 -13 -7 -21 0 -12 3 -12 15 -2 8 7 15 16 15 21
0 11 -14 12 -23 2z"/>
<path d="M11040 3140 c0 -5 5 -10 10 -10 6 0 10 5 10 10 0 6 -4 10 -10 10 -5
0 -10 -4 -10 -10z"/>
<path d="M10686 2892 c-21 -20 20 -59 50 -48 11 4 12 10 5 25 -10 19 -45 34
-55 23z"/>
<path d="M10450 2765 c-10 -12 -10 -15 4 -15 9 0 16 7 16 15 0 8 -2 15 -4 15
-2 0 -9 -7 -16 -15z"/>
<path d="M10140 2460 c0 -5 4 -10 9 -10 6 0 13 5 16 10 3 6 -1 10 -9 10 -9 0
-16 -4 -16 -10z"/>
<path d="M4196 3964 c-10 -26 -7 -44 7 -44 23 0 37 21 26 42 -12 22 -25 23
-33 2z"/>
<path d="M16666 3657 c-5 -15 -6 -31 -2 -34 11 -11 18 5 14 34 l-4 28 -8 -28z"/>
<path d="M16725 3590 c4 -6 11 -8 16 -5 14 9 11 15 -7 15 -8 0 -12 -5 -9 -10z"/>
<path d="M16587 2225 c-5 -10 0 -15 14 -15 12 0 19 5 17 12 -6 18 -25 20 -31
3z"/>
<path d="M16000 1544 c0 -8 5 -12 10 -9 6 4 8 11 5 16 -9 14 -15 11 -15 -7z"/>
<path d="M13390 6359 c0 -5 5 -7 10 -4 6 3 10 8 10 11 0 2 -4 4 -10 4 -5 0
-10 -5 -10 -11z"/>
<path d="M13253 6327 c-13 -5 -23 -13 -23 -18 0 -10 39 1 46 13 9 15 1 16 -23
5z"/>
<path d="M7940 6112 c0 -15 24 -32 47 -32 30 0 29 14 -2 28 -30 14 -45 15 -45
4z"/>
<path d="M20913 5980 c-12 -18 -8 -50 6 -50 21 1 33 20 27 44 -8 31 -17 33
-33 6z"/>
<path d="M20860 5983 c0 -6 -3 -18 -6 -27 -4 -12 0 -16 15 -16 12 0 21 4 21 8
0 13 -29 48 -30 35z"/>
<path d="M20975 5960 c-4 -16 -11 -30 -16 -30 -12 0 -39 -55 -39 -80 0 -11 6
-20 14 -20 15 0 19 10 31 68 5 22 12 32 25 32 22 0 34 28 19 46 -18 21 -27 17
-34 -16z"/>
<path d="M11970 5827 c-22 -9 -23 -11 -6 -14 10 -3 23 0 29 6 16 16 5 20 -23
8z"/>
<path d="M11436 5793 c-11 -11 -6 -23 9 -23 8 0 15 4 15 9 0 13 -16 22 -24 14z"/>
<path d="M20915 5780 c-3 -5 -1 -10 4 -10 6 0 11 5 11 10 0 6 -2 10 -4 10 -3
0 -8 -4 -11 -10z"/>
<path d="M20863 5753 c-7 -15 -11 -28 -9 -30 9 -9 46 23 44 36 -5 25 -23 22
-35 -6z"/>
<path d="M20915 5750 c3 -5 8 -10 11 -10 2 0 4 5 4 10 0 6 -5 10 -11 10 -5 0
-7 -4 -4 -10z"/>
<path d="M13685 5709 c-11 -17 1 -21 15 -4 8 9 8 15 2 15 -6 0 -14 -5 -17 -11z"/>
<path d="M8385 5390 c5 -15 3 -18 -9 -14 -11 4 -16 0 -16 -15 0 -22 24 -29 35
-10 5 7 13 5 24 -5 15 -14 20 -14 36 -2 19 13 18 15 -5 40 -31 32 -75 36 -65
6z"/>
<path d="M7321 5328 c-16 -42 -23 -88 -13 -88 5 0 14 18 21 41 7 23 15 47 18
55 3 8 0 14 -6 14 -6 0 -15 -10 -20 -22z"/>
<path d="M7350 5265 c0 -8 5 -15 10 -15 6 0 10 7 10 15 0 8 -4 15 -10 15 -5 0
-10 -7 -10 -15z"/>
<path d="M13763 4725 c-3 -9 -3 -18 0 -21 10 -10 122 -9 122 1 0 6 -10 9 -21
7 -12 -1 -27 4 -34 13 -16 20 -59 19 -67 0z"/>
<path d="M13660 4710 c0 -5 5 -10 10 -10 6 0 10 5 10 10 0 6 -4 10 -10 10 -5
0 -10 -4 -10 -10z"/>
<path d="M13890 4685 c-19 -23 -9 -26 56 -14 82 16 90 29 17 29 -42 0 -64 -5
-73 -15z"/>
<path d="M13975 4653 c-33 -7 -98 -13 -145 -14 -106 -2 -162 -15 -158 -35 4
-18 3 -18 52 -9 24 5 46 4 57 -3 14 -9 33 -8 78 3 38 10 83 14 129 10 74 -5
88 1 77 34 -8 27 -22 29 -90 14z"/>
<path d="M10050 4582 c-56 -54 -50 -94 11 -62 32 18 65 100 39 100 -5 0 -27
-17 -50 -38z"/>
<path d="M6317 4443 c-15 -15 -5 -23 28 -23 39 0 47 14 13 24 -29 7 -33 7 -41
-1z"/>
<path d="M5915 4380 c-4 -6 7 -10 24 -10 17 0 31 5 31 10 0 6 -11 10 -24 10
-14 0 -28 -4 -31 -10z"/>
<path d="M7132 4369 c2 -6 8 -10 13 -10 5 0 11 4 13 10 2 6 -4 11 -13 11 -9 0
-15 -5 -13 -11z"/>
<path d="M7111 4286 c-17 -69 -15 -88 11 -84 26 4 37 28 13 28 -12 0 -15 5
-10 18 4 9 9 32 12 50 8 49 -13 39 -26 -12z"/>
<path d="M5637 3833 c-13 -12 -7 -23 13 -23 11 0 20 7 20 15 0 15 -21 21 -33
8z"/>
<path d="M6996 3784 c-9 -22 -8 -24 9 -24 8 0 15 6 15 14 0 22 -17 28 -24 10z"/>
<path d="M8210 3785 c-10 -12 -10 -15 3 -15 19 0 31 16 18 24 -5 3 -14 -1 -21
-9z"/>
<path d="M9281 3767 c-32 -35 -27 -52 9 -30 29 17 38 37 21 47 -4 3 -18 -5
-30 -17z"/>
<path d="M8175 3749 c-4 -6 -4 -13 -1 -16 8 -8 36 5 36 17 0 13 -27 13 -35 -1z"/>
<path d="M18280 3534 c0 -9 5 -14 12 -12 18 6 21 28 4 28 -9 0 -16 -7 -16 -16z"/>
<path d="M8100 3530 c0 -5 5 -10 10 -10 6 0 10 5 10 10 0 6 -4 10 -10 10 -5 0
-10 -4 -10 -10z"/>
<path d="M18345 3499 c-10 -15 1 -23 20 -15 9 3 13 10 10 16 -8 13 -22 13 -30
-1z"/>
<path d="M14736 3317 c-13 -29 -28 -66 -32 -82 -7 -27 -6 -29 9 -16 19 15 67
112 67 135 0 31 -19 15 -44 -37z"/>
<path d="M14695 3324 c-17 -42 -19 -54 -6 -54 5 0 14 12 19 28 5 15 13 35 17
45 4 10 3 17 -4 17 -6 0 -18 -16 -26 -36z"/>
<path d="M6814 3036 c-8 -22 3 -33 18 -18 9 9 9 15 0 24 -9 9 -13 7 -18 -6z"/>
<path d="M8736 2911 c-21 -23 -14 -41 15 -41 14 0 19 7 19 30 0 35 -10 38 -34
11z"/>
<path d="M13300 2775 c0 -10 7 -15 18 -13 21 4 19 22 -2 26 -10 2 -16 -3 -16
-13z"/>
<path d="M13263 2722 c-13 -2 -23 -8 -23 -13 0 -13 37 -11 45 2 9 14 5 16 -22
11z"/>
<path d="M16396 2664 c-8 -22 1 -31 16 -16 9 9 9 15 1 23 -7 7 -12 5 -17 -7z"/>
<path d="M13120 2640 c0 -5 5 -10 10 -10 6 0 10 5 10 10 0 6 -4 10 -10 10 -5
0 -10 -4 -10 -10z"/>
<path d="M5012 2615 c0 -16 2 -22 5 -12 2 9 2 23 0 30 -3 6 -5 -1 -5 -18z"/>
<path d="M5387 2524 c-46 -24 -67 -48 -53 -61 3 -4 20 3 36 15 16 12 35 22 43
22 7 0 24 11 37 25 22 23 22 25 4 25 -10 -1 -41 -12 -67 -26z"/>
<path d="M6734 2349 c-10 -29 -14 -160 -6 -212 2 -21 9 -36 16 -34 11 4 21 45
31 132 8 73 -24 163 -41 114z"/>
<path d="M13900 2305 c-10 -12 -10 -15 3 -15 19 0 31 16 18 24 -5 3 -14 -1
-21 -9z"/>
<path d="M8070 2175 c0 -8 5 -15 10 -15 6 0 10 7 10 15 0 8 -4 15 -10 15 -5 0
-10 -7 -10 -15z"/>
<path d="M17474 2089 c-3 -6 -1 -16 5 -22 8 -8 11 -5 11 11 0 24 -5 28 -16 11z"/>
<path d="M12306 2014 c-3 -9 -6 -27 -6 -41 0 -21 2 -24 15 -13 16 14 20 56 6
64 -5 3 -12 -1 -15 -10z"/>
<path d="M19890 1990 c11 -20 30 -28 30 -12 0 11 -22 32 -32 32 -5 0 -4 -9 2
-20z"/>
<path d="M17397 1966 c-4 -10 -5 -21 -2 -24 9 -9 17 6 13 25 -3 17 -4 17 -11
-1z"/>
<path d="M6735 1951 c-6 -11 9 -23 19 -14 9 9 7 23 -3 23 -6 0 -12 -4 -16 -9z"/>
<path d="M11062 1928 c7 -20 58 -23 58 -4 0 11 -10 16 -31 16 -20 0 -29 -4
-27 -12z"/>
<path d="M6745 1907 c-4 -10 -5 -21 -1 -24 10 -10 18 4 13 24 -4 17 -4 17 -12
0z"/>
<path d="M5930 1830 c-17 -13 -20 -20 -10 -20 8 0 26 9 40 20 17 13 20 20 10
20 -8 0 -26 -9 -40 -20z"/>
<path d="M6740 1810 c0 -5 7 -10 15 -10 8 0 15 5 15 10 0 6 -7 10 -15 10 -8 0
-15 -4 -15 -10z"/>
<path d="M17420 1784 c-14 -42 -11 -47 24 -38 28 7 36 40 14 62 -19 19 -26 15
-38 -24z"/>
<path d="M7606 1758 c-6 -27 16 -53 38 -45 12 5 13 11 3 36 -13 36 -32 40 -41
9z"/>
<path d="M17355 1751 c-3 -5 -1 -12 5 -16 5 -3 10 1 10 9 0 18 -6 21 -15 7z"/>
<path d="M6885 1710 c3 -5 8 -10 11 -10 2 0 4 5 4 10 0 6 -5 10 -11 10 -5 0
-7 -4 -4 -10z"/>
<path d="M13387 1673 c-14 -13 -6 -22 38 -39 33 -12 49 -14 57 -6 7 7 -1 16
-30 31 -44 22 -55 25 -65 14z"/>
<path d="M5737 1642 c-16 -18 -23 -52 -12 -52 22 0 65 34 65 50 0 26 -31 26
-53 2z"/>
<path d="M17376 1638 c-13 -42 -16 -69 -6 -63 5 3 10 12 10 20 0 7 7 15 15 19
8 3 12 12 9 21 -7 18 -23 20 -28 3z"/>
<path d="M7650 1556 c0 -9 5 -16 10 -16 6 0 10 4 10 9 0 6 -4 13 -10 16 -5 3
-10 -1 -10 -9z"/>
<path d="M13510 1540 c-12 -8 -12 -10 2 -15 19 -7 38 1 38 16 0 12 -21 11 -40
-1z"/>
<path d="M13435 1519 c-4 -6 -5 -13 -2 -16 8 -7 47 7 47 18 0 13 -37 11 -45
-2z"/>
<path d="M11230 1500 c0 -5 5 -10 10 -10 6 0 10 5 10 10 0 6 -4 10 -10 10 -5
0 -10 -4 -10 -10z"/>
<path d="M17310 1496 c0 -8 5 -18 10 -21 6 -3 10 3 10 14 0 12 -4 21 -10 21
-5 0 -10 -6 -10 -14z"/>
<path d="M6720 1480 c0 -5 5 -10 10 -10 6 0 10 5 10 10 0 6 -4 10 -10 10 -5 0
-10 -4 -10 -10z"/>
<path d="M11240 1455 c0 -8 5 -15 10 -15 6 0 10 7 10 15 0 8 -4 15 -10 15 -5
0 -10 -7 -10 -15z"/>
<path d="M6760 1450 c0 -5 7 -10 15 -10 8 0 15 5 15 10 0 6 -7 10 -15 10 -8 0
-15 -4 -15 -10z"/>
<path d="M4190 1396 c0 -18 17 -29 30 -21 8 5 7 11 -1 21 -15 18 -29 18 -29 0z"/>
<path d="M16470 1344 c0 -14 4 -23 10 -19 6 3 10 15 10 26 0 10 -4 19 -10 19
-5 0 -10 -12 -10 -26z"/>
<path d="M6800 1342 c0 -5 6 -17 14 -27 8 -11 12 -25 9 -31 -5 -14 36 -46 49
-38 17 11 7 43 -24 73 -31 31 -48 39 -48 23z"/>
<path d="M17394 1305 c-7 -17 4 -37 17 -30 12 8 12 45 -1 45 -6 0 -13 -7 -16
-15z"/>
<path d="M11320 1291 c0 -20 27 -48 36 -38 4 3 4 18 0 32 -7 29 -36 34 -36 6z"/>
<path d="M17390 1205 c0 -8 5 -15 10 -15 6 0 10 7 10 15 0 8 -4 15 -10 15 -5
0 -10 -7 -10 -15z"/>
<path d="M17250 1199 c0 -5 5 -7 10 -4 6 3 10 8 10 11 0 2 -4 4 -10 4 -5 0
-10 -5 -10 -11z"/>
<path d="M14109 1149 c-23 -23 -22 -47 4 -63 22 -14 37 6 37 52 0 37 -12 40
-41 11z"/>
<path d="M16490 1143 c0 -14 19 -38 25 -32 8 8 -5 39 -16 39 -5 0 -9 -3 -9 -7z"/>
<path d="M13650 1109 c0 -5 5 -7 10 -4 6 3 10 8 10 11 0 2 -4 4 -10 4 -5 0
-10 -5 -10 -11z"/>
<path d="M13597 1081 c-16 -6 -16 -9 -5 -18 14 -12 51 -2 63 16 7 12 -30 14
-58 2z"/>
<path d="M12318 1049 c-18 -10 -25 -39 -10 -39 5 0 16 8 25 18 28 31 19 42
-15 21z"/>
<path d="M13760 826 c0 -19 14 -28 34 -20 25 10 19 34 -9 34 -15 0 -25 -6 -25
-14z"/>
<path d="M17010 594 c-13 -32 -13 -74 -1 -74 10 0 15 13 26 68 8 39 -11 44
-25 6z"/>
<path d="M17097 553 c-11 -10 -8 -53 3 -53 6 0 10 14 10 30 0 31 -2 35 -13 23z"/>
</g>
</svg>
